<svg width="1060" height="653" viewBox="0 0 1060 653" fill="none" xmlns="http://www.w3.org/2000/svg">
<path d="M934.87 583.758C935.175 583.86 936.601 584.47 938.027 585.081C939.452 585.691 942.201 586.81 944.136 587.623C946.071 588.437 949.329 589.759 951.264 590.471C953.199 591.183 957.272 592.913 960.123 594.235C963.076 595.455 965.927 596.574 966.538 596.574C967.047 596.574 968.37 596.981 969.287 597.49C970.305 597.998 974.786 599.422 979.266 600.643C983.746 601.863 991.078 603.999 995.558 605.22C1000.04 606.44 1005.74 608.068 1008.29 608.678C1010.83 609.39 1014.7 610.305 1016.94 610.814C1019.18 611.221 1022.85 612.136 1025.09 612.848C1027.33 613.459 1029.87 613.865 1030.69 613.764C1031.5 613.56 1034.46 614.171 1037.31 615.086C1040.06 616.001 1045.25 617.019 1048.71 617.324C1052.27 617.629 1056.04 618.544 1057.16 619.256C1058.38 619.968 1059.2 621.596 1059.2 626.071L1052.78 625.664C1049.32 625.359 1042.8 624.749 1038.32 624.24C1033.84 623.732 1029.67 623.02 1029.16 622.715C1028.55 622.308 1025.19 621.596 1021.52 620.985C1017.86 620.375 1014.4 619.46 1013.89 619.053C1013.28 618.544 1010.53 617.934 1007.78 617.527C1004.93 617.12 1000.14 616.103 997.085 615.188C994.031 614.272 990.976 613.255 990.467 612.848C989.856 612.441 986.903 611.526 983.848 610.712C980.793 610 977.128 608.576 975.702 607.661C974.276 606.644 971.629 605.525 969.694 605.016C967.861 604.61 966.13 603.898 965.927 603.491C965.723 602.982 964.908 602.88 964.196 603.186C963.585 603.491 962.057 602.88 960.937 601.863C959.817 600.846 957.679 599.727 956.05 599.32C954.522 598.914 953.3 598.1 953.3 597.591C953.3 597.083 952.588 596.574 951.773 596.574C950.958 596.574 948.311 595.557 945.867 594.336C943.525 593.014 941.489 591.692 941.285 591.285C941.183 590.777 940.369 590.471 939.554 590.471C938.739 590.471 938.027 589.963 938.027 589.454C938.027 588.946 936.295 587.623 934.157 586.708C931.001 585.284 930.695 584.877 932.324 584.267C933.444 583.962 934.565 583.657 934.87 583.758Z" fill="#AFB4D9"/>
<path d="M994.845 534.529C998.714 534.529 1000.95 534.936 1000.65 535.546C1000.34 536.055 1001.67 536.767 1003.5 537.072C1005.23 537.377 1018.57 537.987 1059.2 539.106V546.735L1044.74 546.328C1036.7 546.023 1026.92 545.107 1023.05 544.294C1019.18 543.48 1013.17 542.361 1009.81 541.649C1006.45 541.039 1002.99 540.123 1002.18 539.716C1001.36 539.208 999.02 538.496 997.085 538.089C995.15 537.581 992.401 536.665 990.976 535.851C988.634 534.631 988.939 534.529 994.845 534.529Z" fill="#AFB4D9"/>
<path fill-rule="evenodd" clip-rule="evenodd" d="M809.727 453.871C812.272 454.176 815.225 454.888 816.345 455.396C817.465 455.905 818.891 456.21 819.4 455.905C819.909 455.6 824.288 456.21 829.073 457.227C833.859 458.244 839.561 459.567 841.802 460.279C844.042 460.889 848.217 461.702 850.966 461.906C853.817 462.211 856.566 462.821 857.075 463.33C857.584 463.838 860.843 464.55 864.203 464.856C867.563 465.059 872.655 465.873 875.404 466.483C878.255 467.093 883.143 468.517 886.401 469.534C889.558 470.552 893.02 471.264 893.936 470.958C894.954 470.653 898.009 471.264 900.86 472.382C903.609 473.4 907.072 474.111 908.497 473.806C909.923 473.501 913.283 474.213 916.134 475.434C918.985 476.654 922.243 477.468 923.465 477.061C924.789 476.756 928.251 477.366 931.102 478.383C934.055 479.502 937.619 480.214 939.045 480.113C940.47 480.011 943.219 480.519 945.154 481.333C947.089 482.147 950.551 482.961 952.791 483.164C955.031 483.367 960.733 484.181 965.519 484.995C970.305 485.809 975.294 487.029 976.72 487.843C978.145 488.555 980.895 489.267 982.829 489.368C984.764 489.47 989.346 490.08 993.012 490.792C997.492 491.606 1000.24 492.725 1001.36 494.251C1002.38 495.37 1003.19 497.099 1003.19 497.912C1003.19 498.726 1000.65 501.676 997.594 504.524C994.437 507.27 989.753 511.644 987.106 514.085C984.459 516.526 978.96 521.815 967.454 533.004L967.556 553.346C967.657 571.96 967.556 573.791 965.825 574.909C964.705 575.621 962.974 575.825 961.446 575.316C960.021 574.909 957.882 573.587 956.66 572.367C955.337 571.146 953.809 570.129 953.3 570.129C952.791 570.129 950.144 568.298 947.496 566.06C944.747 563.823 941.692 561.992 940.572 561.992C939.35 561.992 937.721 563.416 936.499 565.247C935.379 567.077 933.852 569.417 933.241 570.637C932.528 571.756 931 573.587 929.88 574.706C928.76 575.825 926.724 578.266 925.298 579.995C923.873 581.826 922.753 583.555 922.753 583.86C922.753 584.165 920.003 588.03 916.643 592.506C913.283 596.981 910.534 601.05 910.534 601.66C910.534 602.169 909.617 603.084 908.497 603.694C907.377 604.203 905.239 604.508 903.711 604.203C901.471 603.796 899.231 601.151 893.223 592.404C889.048 586.301 884.263 579.08 882.532 576.333C880.801 573.587 877.95 569.519 876.219 567.179C874.386 564.941 872.858 562.805 872.858 562.5C872.858 562.195 870.924 559.144 868.582 555.584C866.24 552.126 864 549.074 863.49 548.769C863.083 548.464 862.065 547.243 861.352 546.125C860.741 544.904 859.315 542.361 858.195 540.53C857.177 538.598 855.039 535.648 853.613 533.817C852.188 532.088 849.948 529.138 848.624 527.206C847.402 525.375 842.413 518.153 837.729 511.135C832.943 504.117 828.666 497.506 828.157 496.387C827.546 495.268 826.019 493.335 824.593 492.013C823.168 490.793 821.946 489.063 821.946 488.25C821.946 487.436 821.029 485.91 819.909 484.893C818.789 483.978 817.873 482.655 817.873 482.147C817.873 481.537 817.058 480.214 816.04 479.095C815.022 477.977 811.56 473.094 808.403 468.11C805.246 463.228 802.497 458.142 802.395 456.82C802.293 455.396 802.803 454.074 803.617 453.871C804.432 453.565 807.181 453.565 809.727 453.871V453.871ZM869.803 479.299C869.702 479.807 872.044 481.13 874.895 482.35C877.644 483.673 880.495 484.69 881.004 484.69C881.513 484.69 882.023 485.198 882.023 485.707C882.023 486.215 883.041 486.927 884.365 487.233C885.586 487.538 887.521 488.657 888.641 489.775C889.761 490.894 891.39 491.911 892.205 491.81C893.02 491.81 895.769 492.827 898.315 493.946C900.86 495.166 912.163 500.659 923.567 506.151C934.87 511.745 944.849 516.221 945.663 516.221C946.478 516.221 947.394 516.526 947.598 516.933C947.802 517.441 949.94 518.764 952.384 519.984C954.827 521.205 958.086 522.425 959.715 522.73C962.057 523.239 963.483 522.324 969.796 516.424C973.767 512.661 978.655 507.982 980.487 506.049C982.32 504.117 983.848 502.184 983.848 501.676C983.848 501.269 982.829 500.455 981.608 499.743C980.284 499.133 973.971 497.506 967.556 496.183C961.141 494.861 952.384 493.03 948.209 492.216C944.034 491.505 939.248 490.386 937.517 489.877C935.786 489.267 929.168 487.945 922.753 486.724C916.338 485.503 905.34 483.164 898.315 481.435C891.289 479.706 883.041 478.18 879.986 478.078C876.931 477.875 873.367 477.875 872.146 478.18C870.822 478.383 869.803 478.892 869.803 479.299V479.299ZM839.154 493.539C841.089 496.183 843.634 499.642 844.755 501.066C845.976 502.591 848.522 506.456 850.457 509.609C852.391 512.864 854.53 516.017 855.141 516.628C855.65 517.238 857.992 520.391 860.232 523.748C862.37 527.002 865.12 531.173 866.24 532.902C867.36 534.631 869.804 538.089 871.636 540.632C873.469 543.175 874.895 545.616 874.895 546.226C874.895 546.735 876.218 548.566 877.95 550.295C879.681 551.922 881.004 553.651 881.004 554.058C881.004 554.567 882.633 557.008 884.568 559.652C886.503 562.399 888.438 564.941 888.947 565.552C889.354 566.06 890.779 568.4 892.205 570.637C893.529 572.875 895.667 575.825 896.991 577.249C898.416 578.673 900.351 581.724 901.471 584.064C902.693 586.81 904.119 588.437 905.239 588.437C906.257 588.437 908.599 585.996 911.043 582.334C913.283 578.978 915.319 576.232 915.625 576.232C915.93 576.333 919.087 571.858 922.753 566.365C926.316 560.873 929.677 556.296 930.084 556.092C930.491 555.991 930.899 554.974 930.899 553.855C930.899 552.634 929.677 551.108 927.64 549.99C925.909 549.074 923.771 547.549 922.854 546.735C921.938 545.921 919.901 544.497 918.374 543.683C916.847 542.87 915.625 541.853 915.625 541.344C915.625 540.937 913.487 539.31 910.839 537.682C908.09 536.055 904.628 533.614 902.897 532.088C901.166 530.664 899.231 529.444 898.62 529.444C897.907 529.444 897.093 528.732 896.787 527.918C896.482 527.104 895.769 526.392 895.26 526.392C894.751 526.392 893.631 525.884 893.02 525.273C892.307 524.765 886.706 520.493 880.699 515.916C874.589 511.339 868.174 506.761 866.443 505.744C864.61 504.829 862.879 503.303 862.472 502.49C861.963 501.676 861.148 500.964 860.639 500.964C860.13 500.964 857.483 499.336 854.835 497.404C852.086 495.471 849.438 493.539 848.929 493.132C848.318 492.623 846.18 491.098 844.042 489.47C842.005 487.945 839.969 486.724 839.561 486.724C839.052 486.724 838.034 487.131 837.219 487.741C835.896 488.453 836.201 489.369 839.154 493.539V493.539ZM874.691 500.354C874.793 500.659 875.608 500.964 876.422 500.964C877.237 500.964 878.051 501.371 878.255 501.778C878.357 502.286 881.717 504.829 885.586 507.473C889.456 510.22 893.631 513.271 894.751 514.288C895.871 515.305 897.296 516.221 897.805 516.221C898.315 516.221 900.86 517.95 903.406 520.086C905.951 522.12 908.09 524.154 908.293 524.561C908.395 525.07 910.534 526.29 913.079 527.409C915.625 528.528 917.661 529.749 917.661 530.156C917.661 530.664 920.716 533.004 924.484 535.546C928.353 538.089 935.277 542.971 940.063 546.531C944.849 549.99 949.634 553.753 950.754 554.77C951.875 555.787 953.809 556.906 955.133 557.313C957.271 557.923 957.373 557.72 956.762 552.024C956.457 548.871 956.151 543.48 956.049 540.123L955.846 534.021C938.332 525.375 931.204 522.018 928.76 520.9C926.316 519.882 916.439 515.204 906.97 510.525C897.5 505.948 887.827 501.269 885.586 500.354C883.346 499.336 880.801 498.218 879.884 497.811C878.968 497.404 877.339 497.709 876.32 498.421C875.302 499.133 874.488 499.947 874.691 500.354V500.354Z" fill="#70B3B2"/>
<path fill-rule="evenodd" clip-rule="evenodd" d="M145.324 442.981C148.379 443.286 148.786 443.795 149.906 448.067C150.619 450.711 151.332 454.78 151.637 457.221C152.146 460.374 153.266 462.612 156.321 465.867C158.561 468.206 160.394 470.444 160.394 470.952C160.394 471.359 161.718 473.19 163.449 475.021C165.078 476.75 167.013 478.988 167.725 479.801C168.438 480.717 170.678 483.463 172.715 485.904C174.853 488.549 176.584 491.905 176.788 493.838C177.093 496.177 176.686 497.703 175.566 498.415C174.649 499.127 173.428 501.263 172.817 503.195C172.104 505.433 170.678 507.264 168.845 508.078C167.013 508.891 164.161 509.196 160.903 508.891C158.154 508.484 153.775 507.874 151.23 507.366C148.684 506.857 146.24 506.755 145.833 507.061C145.324 507.467 145.935 511.943 147.157 516.927C148.379 522.012 149.906 526.793 150.721 527.607C151.433 528.42 152.961 531.167 154.183 533.709C155.303 536.252 155.914 538.693 155.506 539.202C155.099 539.609 155.303 540.321 155.914 540.728C156.423 541.033 157.645 542.965 158.561 544.898C159.478 546.83 160.496 549.577 160.903 551.001C161.31 552.425 162.227 554.256 162.94 555.069C163.652 555.883 165.078 558.426 166.096 560.663C167.013 562.901 167.725 565.037 167.725 565.546C167.624 565.953 168.744 567.885 170.373 569.818C173.122 573.479 173.122 573.479 175.159 571.445C176.279 570.326 179.333 568.902 182.083 568.394C184.73 567.783 188.803 567.478 191.247 567.682C193.793 567.987 196.847 569.106 198.884 570.733C200.615 572.157 202.651 574.598 203.262 576.226C203.873 577.751 204.382 581.311 204.382 584.058C204.382 586.906 204.281 589.957 204.281 590.974C204.179 591.889 202.04 594.839 199.393 597.585C196.644 600.23 192.673 603.79 190.432 605.417C188.294 607.146 185.647 609.282 184.628 610.3C183.61 611.215 182.083 612.029 181.268 612.029C180.454 612.029 179.741 612.334 179.741 612.842C179.741 613.249 178.112 614.673 175.973 616.097C173.835 617.521 170.475 619.352 168.54 620.166C166.605 620.878 164.772 621.895 164.467 622.2C164.161 622.505 161.718 623.929 158.867 625.251C156.117 626.675 153.063 627.693 152.248 627.591C151.433 627.489 149.6 628.303 148.175 629.32C146.749 630.337 144.611 631.049 143.389 630.744C142.065 630.541 140.436 630.744 139.825 631.354C139.113 631.863 136.261 632.778 133.41 633.389C130.661 633.999 124.144 635.118 119.155 636.033C112.74 637.152 106.528 637.457 98.2806 637.05C91.8656 636.745 84.3306 636.033 81.4795 635.423C78.7302 634.812 74.0462 633.999 71.1951 633.592C68.344 633.185 65.2893 632.27 64.3728 631.659C63.3546 630.947 61.6236 630.642 60.4017 630.947C58.7725 631.354 57.4487 630.846 56.0232 629.32C54.9031 628.201 53.2739 627.286 52.4593 627.387C51.6447 627.489 50.321 627.489 49.71 627.387C48.9972 627.387 47.0626 626.065 45.4334 624.539C43.8042 622.912 42.0731 620.776 41.564 619.657C40.9531 618.538 40.6476 614.47 40.7494 610.503C40.953 605.316 41.4622 603.078 42.5823 602.366C43.4987 601.857 44.3133 600.84 44.3133 600.332C44.3133 599.823 45.4334 598.603 46.6553 597.687C47.8772 596.772 50.7283 595.653 52.9684 595.043C55.2086 594.534 57.9578 594.432 59.0779 594.839C60.198 595.246 62.6418 595.653 64.4747 595.653C66.2057 595.755 67.7331 595.449 67.8349 595.043C67.8349 594.534 67.9367 582.227 68.2422 540.728L65.6966 541.338C64.271 541.745 62.8455 542.558 62.4382 543.169C62.1327 543.881 60.809 545.508 59.5871 546.932C58.467 548.356 57.2451 550.289 57.0414 551.306C56.7359 552.221 56.125 553.035 55.514 553.035C55.0049 553.035 54.6994 553.645 54.9031 554.357C55.2086 554.967 54.4958 556.595 53.3757 557.917C52.3575 559.138 50.5246 560.155 49.4045 560.155C48.2845 560.155 46.9607 559.341 46.4516 558.426C46.0443 557.409 45.3315 553.747 44.9242 550.289C44.6188 546.729 43.906 542.965 43.295 541.846C42.6841 540.728 41.9713 535.337 41.6658 529.946C41.0549 521.199 41.2585 519.368 43.0914 515.401C44.2115 512.858 45.9425 510.01 47.0626 508.993C48.4881 507.671 50.8301 507.162 57.2451 506.959C64.4747 506.755 65.9002 507.061 68.6495 509.095C70.3805 510.315 72.417 511.332 73.1298 511.332C73.9444 511.332 74.8608 511.027 75.2681 510.62C75.6754 510.112 78.0174 509.705 80.2576 509.705C82.5995 509.603 86.3671 508.993 88.6072 508.383C90.8474 507.671 94.2076 507.162 96.0405 507.162C97.7715 507.264 99.5025 506.755 99.808 506.247C100.113 505.738 101.437 505.23 102.863 505.23C104.492 505.23 105.917 504.314 106.936 502.687C107.954 500.958 108.361 497.805 108.259 492.821C108.158 487.633 108.667 484.277 109.889 481.836C110.805 479.903 111.518 477.767 111.518 477.259C111.518 476.75 112.434 474.411 113.554 472.173C114.674 469.935 115.591 467.596 115.591 467.087C115.489 466.579 116.711 465.155 118.137 464.036C119.562 462.917 120.682 461.493 120.682 460.984C120.58 460.476 122.922 457.933 125.875 455.39C128.726 452.847 131.985 449.999 133.003 449.084C134.021 448.067 135.243 447.253 135.752 447.253C136.16 447.151 137.687 446.134 139.214 444.914C141.251 443.286 143.084 442.676 145.324 442.981V442.981ZM131.068 462.002C129.235 463.731 126.486 466.884 124.959 469.121C123.533 471.359 121.599 473.8 120.784 474.512C119.868 475.224 119.053 477.36 118.849 479.089C118.747 480.92 118.137 482.853 117.627 483.361C117.118 483.87 116.507 488.244 116.202 493.024C115.896 497.805 115.693 503.501 115.693 505.738C115.693 509.197 115.285 510.01 112.842 511.231C111.314 511.943 109.38 512.248 108.769 511.943C108.056 511.638 105.51 512.044 103.168 512.96C100.724 513.774 96.9569 514.689 94.7167 514.892C92.4766 515.096 87.6908 516.011 84.0251 516.723C80.3594 517.537 75.37 518.656 72.8243 519.266C70.2787 519.876 67.8349 520.182 67.2239 519.876C66.7148 519.673 65.4929 518.351 64.6783 516.927C63.8637 515.604 62.2345 514.18 61.1144 513.875C59.9944 513.672 57.4487 513.672 55.514 513.977C52.6629 514.486 51.5429 515.299 50.1173 518.351C48.8954 520.995 48.4881 523.64 48.7936 528.115C49.0991 531.472 49.6082 535.337 50.0155 536.761C50.4228 538.185 51.2374 539.914 51.8483 540.626C52.7648 541.643 53.5794 541.134 55.8195 538.287C57.3469 536.354 59.4852 534.727 60.6053 534.727C61.7254 534.727 62.9473 534.116 63.4564 533.404C63.8637 532.692 66.002 531.37 68.2422 530.556C70.4823 529.641 73.1298 529.132 74.1481 529.336C75.0645 529.539 76.1846 530.861 76.49 532.489C76.7955 534.015 76.9992 543.677 76.8973 554.052C76.7955 564.427 76.5919 579.887 76.5919 588.431C76.3882 602.773 76.1846 604.197 74.3517 605.519C73.1298 606.434 71.2969 606.74 69.7696 606.434C68.344 606.028 66.5112 605.214 65.6966 604.502C64.882 603.79 61.4199 603.18 58.0597 603.18C54.6994 603.18 51.5429 603.688 50.9319 604.299C50.4228 604.909 49.3027 606.536 48.4881 607.96C47.4699 609.791 47.368 611.418 47.979 613.86C48.4881 615.894 49.9137 617.826 51.441 618.538C52.8666 619.25 55.4122 620.573 57.0414 621.488C58.7725 622.403 60.4016 622.81 60.809 622.403C61.2163 621.997 63.2528 622.709 65.3911 624.031C67.5294 625.353 69.8714 626.167 70.5842 625.862C71.1951 625.557 74.2499 626.167 77.2028 627.286C81.9886 629.015 84.636 629.218 103.881 628.913C123.839 628.71 125.773 628.506 133.41 625.963C137.891 624.438 142.269 623.217 143.084 623.217C143.898 623.217 146.037 622.505 147.666 621.59C149.397 620.776 151.433 619.962 152.248 619.759C153.063 619.555 155.405 618.64 157.339 617.725C159.274 616.809 162.736 614.673 164.976 613.046C167.216 611.418 169.864 610.096 170.882 609.994C171.798 609.994 172.817 609.282 173.122 608.469C173.428 607.655 174.14 606.943 174.649 606.943C175.26 606.943 176.381 606.333 177.297 605.722C178.213 605.01 180.046 603.383 181.37 602.162C182.694 600.84 184.73 599.62 185.85 599.315C186.97 599.009 188.09 597.992 188.396 597.077C188.701 596.06 190.738 593.924 192.876 592.195C196.135 589.652 196.746 588.533 196.847 585.075C196.949 581.718 196.44 580.498 193.691 578.158C190.942 575.717 189.821 575.31 186.359 575.819C184.119 576.022 182.185 576.836 182.083 577.344C181.879 577.955 181.166 578.463 180.555 578.463C179.843 578.463 177.806 580.192 175.973 582.328C172.918 585.888 172.511 585.99 169.355 585.075C167.522 584.464 165.994 583.346 165.994 582.532C165.893 581.718 164.365 577.853 162.634 573.886C160.801 570.021 158.867 565.953 158.357 565.037C157.747 564.02 157.339 562.596 157.339 561.986C157.441 561.274 156.525 559.443 155.303 557.917C154.183 556.29 153.368 554.764 153.47 554.357C153.572 553.849 152.248 550.797 150.619 547.441C148.888 544.084 147.666 540.728 147.869 540.117C148.073 539.405 147.768 538.795 147.157 538.795C146.648 538.795 145.935 537.269 145.629 535.54C145.324 533.709 144.407 531.472 143.593 530.658C142.676 529.844 141.964 528.217 142.065 527.098C142.065 525.979 141.353 523.436 140.436 521.504C139.52 519.571 138.502 516.316 138.298 514.384C138.094 512.451 137.28 509.908 136.567 508.79C135.854 507.671 135.447 505.128 135.549 503.195C135.752 501.263 136.261 499.229 136.669 498.822C137.076 498.415 140.233 498.211 143.593 498.517C146.953 498.72 152.961 499.534 156.83 500.144C162.532 501.059 164.161 501.059 165.282 499.941C165.994 499.229 166.707 497.601 167.013 496.381C167.318 494.957 166.605 492.821 165.282 490.888C163.958 489.159 161.718 486.413 160.19 484.785C158.561 483.158 157.339 481.225 157.339 480.615C157.339 479.903 156.015 477.971 154.284 476.241C152.553 474.614 151.23 472.987 151.23 472.681C151.23 472.376 149.702 470.444 147.666 468.409C144.611 465.053 144.204 464.036 144.713 461.188C145.222 458.747 144.917 457.323 143.695 456.102C142.778 455.187 141.76 454.373 141.251 454.373C140.844 454.373 139.112 455.39 137.381 456.712C135.752 457.933 132.901 460.374 131.068 462.002V462.002Z" fill="#BA80B6"/>
<path fill-rule="evenodd" clip-rule="evenodd" d="M127.301 545.915C129.032 545.915 131.476 546.729 132.901 547.746C134.327 548.763 136.974 552.323 138.909 555.679C140.844 558.934 142.778 561.782 143.287 561.986C143.695 562.087 143.797 562.799 143.491 563.41C143.186 564.122 143.695 565.037 144.509 565.444C145.426 565.952 147.055 568.292 148.175 570.835C149.295 573.378 150.619 575.615 151.23 575.92C151.841 576.226 152.248 577.344 152.248 578.463C152.248 579.582 152.961 580.701 153.775 581.006C154.59 581.311 155.303 582.227 155.303 583.04C155.303 583.854 156.525 586.193 158.052 588.228C160.598 591.381 160.801 592.093 159.579 594.331C158.968 595.653 157.543 596.772 156.525 596.772C155.608 596.67 154.081 597.382 153.266 598.297C152.452 599.213 151.026 599.925 150.212 599.823C149.397 599.823 147.564 600.739 146.139 601.857C144.713 602.976 142.982 603.688 142.269 603.383C141.658 603.078 139.724 603.79 137.992 604.909C136.261 606.028 134.53 606.74 133.919 606.434C133.309 606.129 130.457 606.74 127.505 607.655C124.653 608.57 120.58 609.486 118.646 609.588C116.711 609.791 110.5 610.198 104.899 610.503C97.5679 611.012 93.5967 610.808 90.6438 609.791C87.0799 608.672 86.5708 608.062 86.2653 604.909C86.0617 602.976 86.8763 594.025 87.9963 585.075C89.2182 576.124 90.6438 566.054 91.1529 562.698C91.8657 558.731 92.9858 555.781 94.5132 554.357C95.7351 553.137 97.0588 552.323 97.4661 552.526C97.9752 552.831 98.8916 552.628 99.5026 552.119C100.215 551.611 102.456 550.899 104.39 550.492C106.325 549.983 108.87 549.577 109.991 549.373C111.111 549.17 114.776 548.356 118.137 547.542C121.497 546.729 125.57 546.017 127.301 545.915V545.915ZM108.463 557.307C105.918 557.307 103.066 557.815 102.048 558.527C101.03 559.138 99.5026 561.274 98.688 563.206C97.8734 565.139 97.2624 568.597 97.3643 570.835C97.4661 573.072 96.7533 579.684 95.8369 585.583C94.8186 592.398 94.5132 597.382 95.0223 599.315L95.9387 602.366C109.176 602.163 115.591 601.857 118.646 601.654C121.7 601.45 128.421 599.925 133.41 598.297C138.4 596.67 143.491 594.534 144.611 593.517C145.731 592.5 147.259 591.889 147.87 592.195C148.582 592.5 149.295 592.093 149.499 591.483C149.702 590.771 148.684 588.329 147.259 586.092C145.833 583.854 144.102 581.108 143.389 579.989C142.676 578.87 141.149 575.92 139.927 573.378C138.705 570.835 136.974 567.987 136.058 566.868C135.141 565.851 134.429 564.732 134.53 564.325C134.632 564.02 133.512 561.986 132.29 559.951C130.967 557.815 129.032 555.679 128.014 555.171C127.097 554.764 124.653 554.255 122.719 554.255C120.784 554.255 117.831 554.866 116.1 555.781C114.369 556.595 111.009 557.307 108.463 557.307V557.307Z" fill="#BA80B6"/>
<path d="M814.092 323.163C814.907 323.163 818.776 324.078 822.747 325.197C828.449 326.926 830.69 328.147 833.744 331.605C835.984 333.944 838.428 337.504 839.243 339.437C840.261 341.98 840.668 345.743 840.363 352.863C840.057 361.712 839.854 362.933 837.512 365.272C835.577 367.205 834.559 367.611 833.133 366.9C832.217 366.289 831.402 364.865 831.402 363.645C831.402 362.322 832.115 359.881 832.93 358.254C833.846 356.626 834.457 353.168 834.457 350.625C834.457 347.167 833.846 345.336 831.911 343.302C830.486 341.675 828.348 340.149 827.024 339.844C825.802 339.539 822.849 339.539 820.405 339.844C817.554 340.251 816.027 341.064 815.721 342.285C815.416 343.2 814.907 345.641 814.601 347.574C814.092 350.218 814.499 352.456 816.536 356.728C818.165 360.288 822.645 365.984 828.755 372.494C834.05 378.088 839.141 383.479 839.956 384.496C840.872 385.411 842.705 388.666 844.13 391.616C846.065 395.583 846.676 398.532 846.676 403.821C846.676 408.399 846.065 411.857 844.741 414.501C843.723 416.536 840.465 420.401 837.41 423.147C834.355 425.792 831.199 427.928 830.384 427.928C829.569 427.928 827.431 428.538 825.802 429.453C823.867 430.47 819.896 430.979 814.601 430.979C809.204 430.979 805.437 430.47 803.4 429.352C801.771 428.538 799.531 427.724 798.513 427.622C797.596 427.521 796.375 426.91 795.967 426.3C795.56 425.69 794.338 424.876 793.218 424.469C792.098 424.164 789.959 421.926 788.432 419.587C786.905 417.146 785.377 412.976 785.072 410.128C784.597 406.737 784.902 403.008 785.988 398.939C786.905 395.583 788.534 391.921 789.654 390.802C791.385 389.073 791.996 388.971 794.236 390.09C795.662 390.802 796.782 392.226 796.782 393.345C796.782 394.464 795.662 397.108 794.236 399.244C792.811 401.279 791.691 404.432 791.691 406.364C791.691 408.805 792.403 410.128 794.44 411.552C796.069 412.569 799.124 413.993 801.364 414.501C804.317 415.315 806.862 415.315 810.528 414.501C813.99 413.688 816.638 412.264 818.878 409.924C821.525 407.28 822.238 405.754 822.238 402.499C822.238 399.55 821.525 397.617 819.387 395.176C817.86 393.447 812.972 388.259 808.39 383.784C803.91 379.207 798.309 372.799 796.069 369.442C793.727 366.086 791.181 361 790.367 358.254C789.45 355.304 788.941 350.931 789.247 347.777C789.45 344.624 790.876 340.047 792.709 336.385C794.338 333.029 796.782 329.571 798.106 328.757C799.327 327.943 803.095 326.316 806.455 325.299C809.815 324.18 813.277 323.264 814.092 323.163V323.163Z" fill="#6D7AC4"/>
<path d="M282.056 323.265C283.685 323.265 287.147 323.773 289.693 324.485C292.238 325.197 295.904 326.723 297.839 327.842C299.773 329.062 302.93 332.215 304.763 334.962C306.596 337.708 308.327 341.573 308.734 343.506C309.04 345.438 309.141 350.524 308.836 354.694C308.53 359.373 307.716 363.441 306.698 365.069C305.781 366.696 304.356 367.917 303.745 367.917C303.032 368.018 301.81 367.306 301.199 366.391C300.079 365.17 300.181 363.95 301.403 359.983C302.217 357.339 302.93 353.27 302.93 350.829C302.93 347.574 302.217 345.743 299.875 342.997C297.126 339.844 296.311 339.437 291.729 339.437C287.758 339.437 286.231 339.946 284.601 341.675C283.38 343.2 282.667 345.54 282.565 348.083C282.565 350.32 283.074 353.779 283.685 355.711C284.296 357.949 288.165 362.831 294.071 369.036C299.264 374.426 304.356 380.122 305.476 381.546C306.596 383.072 308.021 384.801 308.53 385.513C309.141 386.123 310.771 388.666 312.4 391.006C314.844 394.871 315.149 396.295 315.047 403.211C314.945 408.297 314.334 412.06 313.316 413.688C312.502 415.112 310.567 417.96 309.141 420.096C307.716 422.232 305.577 424.266 304.457 424.571C303.337 424.876 301.708 425.69 300.893 426.504C300.079 427.216 298.45 428.029 297.33 428.233C296.21 428.538 294.173 429.25 292.747 429.962C291.016 430.776 287.249 431.081 281.445 430.877C276.659 430.674 271.975 429.86 271.059 429.148C270.04 428.538 269.022 428.131 268.513 428.436C268.106 428.64 265.967 427.622 263.727 425.995C261.487 424.469 258.127 420.909 256.294 418.163C253.341 413.789 253.036 412.365 253.036 406.263C253.036 401.991 253.748 397.922 254.868 395.379C255.785 393.142 257.516 390.802 258.636 390.192C260.163 389.378 261.283 389.378 263.014 390.192C264.508 390.938 265.153 392.057 264.949 393.549C264.847 394.871 263.422 397.922 261.894 400.465C259.552 404.432 259.247 405.551 260.163 408.297C260.774 410.128 261.894 411.653 262.709 411.653C263.524 411.653 264.44 412.365 264.746 413.179C265.051 413.993 266.069 414.603 267.088 414.501C268.004 414.4 270.651 414.705 272.892 415.112C276.048 415.62 278.186 415.315 282.463 413.484C286.027 411.959 288.369 410.23 289.285 408.297C290.1 406.771 290.711 404.127 290.711 402.499C290.711 400.465 289.218 397.481 286.231 393.549C283.787 390.395 280.732 387.039 279.408 386.123C278.085 385.208 276.252 383.784 275.437 382.97C274.623 382.157 271.568 378.8 268.819 375.647C265.967 372.392 263.727 369.442 263.727 369.137C263.727 368.73 262.913 367.306 261.996 365.882C261.182 364.458 259.552 360.797 258.636 357.745C257.414 353.88 257.007 350.727 257.516 347.574C257.821 345.031 258.84 340.861 259.654 338.115C260.876 334.25 262.302 332.52 266.68 329.266C269.633 327.028 272.993 325.197 274.012 325.197C275.132 325.197 276.659 324.689 277.474 324.18C278.288 323.671 280.427 323.163 282.056 323.265V323.265Z" fill="#6D7AC4"/>
<path fill-rule="evenodd" clip-rule="evenodd" d="M465.85 322.858C468.396 323.163 471.96 323.773 473.792 324.282C475.829 324.892 477.56 326.316 478.476 328.045C479.189 329.571 480.106 332.012 480.513 333.639C480.818 335.165 482.142 337.403 483.466 338.725C484.79 339.945 486.826 343.709 488.048 347.065C489.27 350.422 490.695 356.83 491.408 361.305C492.019 365.882 492.223 372.799 491.816 377.071C491.51 381.241 490.288 389.276 489.066 394.871C487.946 400.465 486.622 405.144 486.113 405.347C485.604 405.449 485.197 406.364 485.197 407.381C485.197 408.297 484.382 410.738 483.262 412.671C482.244 414.603 479.698 417.96 477.662 420.096C475.625 422.13 472.774 424.469 471.247 425.283C469.618 425.995 466.563 427.012 464.323 427.419C461.879 427.826 458.417 427.521 455.668 426.809C453.122 425.995 449.253 424.266 447.012 422.74C444.772 421.215 441.921 418.57 440.597 416.841C439.376 415.112 438.357 413.383 438.357 412.976C438.357 412.467 437.645 411.45 436.932 410.636C436.117 409.823 434.081 403.822 432.248 397.414C429.295 386.734 429.091 384.699 429.499 374.019C429.702 367.612 430.415 360.085 431.128 357.237C431.739 354.491 433.266 349.303 434.59 345.743C435.812 342.285 437.135 339.437 437.645 339.437C438.052 339.437 438.357 339.03 438.357 338.42C438.357 337.911 439.376 335.877 440.699 333.944C441.921 332.012 445.18 328.96 447.929 327.028C450.678 325.197 454.853 323.366 457.093 323.061C459.435 322.756 463.304 322.654 465.85 322.858V322.858ZM457.297 354.185C455.871 358.356 455.668 362.322 455.973 376.562C456.279 392.226 456.584 394.362 458.824 399.448C460.148 402.499 461.573 405.144 462.083 405.347C462.49 405.449 462.795 406.263 462.795 407.076C462.795 407.89 463.508 409.314 464.323 410.128C465.137 410.941 467.377 411.653 469.21 411.653C471.858 411.755 473.08 410.941 475.523 407.89C477.153 405.754 479.698 400.567 481.022 396.396C483.364 389.582 483.568 387.242 483.466 374.019C483.466 365.374 482.855 357.033 482.04 353.779C481.124 350.219 479.698 347.574 478.069 346.353C476.542 345.133 473.182 344.217 469.312 343.811C463.406 343.302 463.101 343.404 461.064 346.15C459.944 347.777 458.213 351.439 457.297 354.185Z" fill="#6D7AC4"/>
<path fill-rule="evenodd" clip-rule="evenodd" d="M727.032 322.044C729.272 322.247 733.549 323.977 736.502 325.909C739.353 327.74 741.796 329.978 741.796 330.791C741.796 331.605 742.306 332.317 742.815 332.317C743.324 332.317 744.953 334.86 746.379 337.911C747.804 340.963 748.924 344.319 748.924 345.336C748.924 346.252 749.332 347.574 749.942 348.083C750.553 348.693 751.164 351.134 751.47 353.677C751.674 356.22 752.284 361.204 752.895 364.865C753.405 368.527 754.117 376.969 754.423 383.682C754.728 390.395 755.237 400.974 755.645 407.076C756.256 416.536 756.154 418.875 754.728 422.13C753.812 424.164 751.979 426.605 750.655 427.419C749.433 428.233 746.684 428.945 744.546 428.945C742.509 428.945 739.76 428.436 738.436 427.826C737.214 427.114 735.789 425.893 735.178 424.978C734.669 424.062 734.16 423.147 734.16 422.842C734.16 422.537 733.549 421.418 732.938 420.299C732.327 419.18 731.512 415.112 731.207 411.145C730.901 407.178 730.392 401.177 729.577 391.311H719.599C714.202 391.413 707.176 390.904 704.121 390.294C701.066 389.785 697.299 389.073 695.67 388.768C693.022 388.259 692.92 388.463 691.902 393.65C691.393 396.498 690.68 404.025 690.273 410.128C689.866 416.231 689.255 422.333 688.746 423.656C688.236 424.876 686.913 425.893 685.793 425.893C684.673 425.893 683.247 424.978 682.738 423.859C682.127 422.74 682.025 418.773 682.331 415.01C682.636 411.145 683.145 406.67 683.451 405.042C683.654 403.415 684.163 399.448 684.469 396.396C685.08 390.904 684.978 390.802 681.821 389.582C680.09 388.87 678.156 387.344 677.647 386.225C677.138 385.106 676.832 383.174 677.138 381.953C677.443 380.529 679.479 378.698 682.432 377.071C686.607 374.833 687.32 373.918 688.644 369.442C689.357 366.696 690.375 362.526 690.782 360.288C691.189 358.051 692.004 355.304 692.615 354.185C693.328 353.067 694.753 349.913 695.975 347.066C697.197 344.319 699.132 340.047 700.354 337.606C701.576 335.165 703.307 332.419 704.121 331.503C705.038 330.588 707.481 328.452 709.722 326.723C711.962 325.095 714.202 323.366 714.711 322.959C715.22 322.654 717.257 322.146 719.293 321.942C721.33 321.637 724.792 321.739 727.032 322.044V322.044ZM707.583 341.166C706.87 342.183 705.139 345.336 703.816 348.083C702.492 350.931 700.557 355.915 699.539 359.271C698.623 362.628 697.604 367.103 697.401 369.239L696.993 373.002C707.685 373.002 714.1 373.714 718.173 374.528C722.144 375.342 726.217 375.749 727.134 375.342C728.356 374.732 728.559 373.816 728.05 371.477C727.643 369.849 727.235 365.882 727.032 362.831C726.828 359.78 725.403 353.372 723.875 348.591C722.348 343.811 720.617 339.335 720.006 338.623C719.395 337.911 717.969 337.403 716.849 337.403C715.729 337.504 713.489 338.013 711.86 338.42C710.332 338.928 708.398 340.149 707.583 341.166V341.166Z" fill="#6D7AC4"/>
<path d="M382.863 321.841C390.703 322.146 398.747 322.858 400.682 323.468C402.617 323.977 404.755 324.994 405.366 325.604C405.977 326.214 406.486 328.757 406.486 331.3C406.486 335.267 406.079 336.182 403.329 338.216C400.478 340.352 399.46 340.556 385.917 339.335L385.103 346.76C384.695 350.829 384.39 368.832 384.492 386.734C384.695 416.943 384.594 419.587 382.761 423.249C381.743 425.385 380.317 427.622 379.808 428.029C379.299 428.538 375.939 429.046 372.578 429.25C367.894 429.352 365.756 429.046 364.432 427.724C363.312 426.809 361.887 423.859 361.174 421.113C360.257 417.655 359.85 404.839 359.646 377.579C359.545 353.168 359.036 338.725 358.425 338.216C357.915 337.911 353.944 337.81 349.769 338.115C345.391 338.42 341.216 338.318 340.096 337.708C338.976 337.098 337.754 335.47 337.347 333.944C336.838 332.52 336.939 330.181 337.55 328.757C338.161 327.231 340.096 325.604 342.438 324.689C344.474 323.875 351.297 322.756 357.406 322.247C363.516 321.841 375.022 321.637 382.863 321.841V321.841Z" fill="#6D7AC4"/>
<path d="M184.609 321.942C186.136 322.145 188.275 322.654 189.395 323.163C190.515 323.671 198.05 324.281 206.196 324.485C214.342 324.688 221.775 325.299 222.793 325.807C223.812 326.316 225.034 328.147 225.543 329.774C226.154 331.707 226.154 333.232 225.543 333.842C225.034 334.453 224.728 335.063 225.034 335.368C225.339 335.673 224.626 336.792 223.404 337.911C221.877 339.437 219.84 339.945 215.971 339.945C213.12 339.945 207.418 340.047 196.013 340.454L194.486 344.217C193.366 346.862 192.959 351.541 192.959 358.966C192.959 366.696 193.366 370.154 194.181 370.663C194.893 371.07 198.05 371.273 201.105 371.07C204.159 370.968 208.945 371.477 211.694 372.189C214.444 372.901 216.786 373.816 216.989 374.223C217.193 374.731 217.499 377.071 217.6 379.512C217.906 383.275 217.498 384.394 215.36 386.225C213.12 388.056 211.491 388.361 192.959 388.259L193.468 416.23L199.068 416.027C202.123 416.027 208.334 415.722 212.916 415.518C219.637 415.315 221.368 415.519 222.793 416.943C223.71 417.96 224.524 419.994 224.524 421.52C224.626 423.147 223.812 425.385 222.793 426.504C221.775 427.724 218.619 429.25 215.869 429.962C213.018 430.674 204.363 431.488 196.523 431.691C187.562 431.996 180.638 431.793 177.889 431.081C174.325 430.165 173.306 429.25 171.474 425.588C169.946 422.537 169.132 418.468 168.622 411.145C168.317 405.551 168.011 393.65 168.011 384.699C168.011 375.748 168.317 361.814 168.724 353.677C169.132 345.54 169.946 336.385 170.659 333.334C171.474 329.977 173.001 326.723 174.528 325.095C175.954 323.569 178.194 322.145 179.518 321.942C180.841 321.739 183.082 321.739 184.609 321.942V321.942Z" fill="#6D7AC4"/>
<path fill-rule="evenodd" clip-rule="evenodd" d="M534.073 318.179C534.378 318.179 536.211 318.687 538.248 319.399C540.284 320.01 542.83 321.332 543.848 322.247C544.968 323.264 546.19 326.011 546.597 328.35C547.107 330.791 547.616 333.131 547.921 333.537C548.125 334.046 550.67 333.232 553.42 331.808C557.391 329.774 560.038 329.265 565.639 329.265C570.221 329.265 574.09 329.876 576.636 330.995C578.672 332.012 581.829 334.148 583.458 335.877C585.087 337.708 587.124 340.657 587.938 342.59C588.651 344.523 589.771 347.167 590.484 348.489C591.095 349.913 591.604 355.711 591.604 362.221C591.502 370.154 590.993 375.037 589.771 378.597C588.855 381.343 586.309 385.92 584.171 388.666C582.134 391.412 578.571 394.667 576.33 395.786C573.276 397.414 570.425 397.922 564.824 397.922C559.631 397.922 557.493 398.329 557.493 399.143C557.493 399.855 559.936 402.804 562.889 405.551C565.741 408.399 568.49 410.636 568.897 410.636C569.406 410.636 571.137 411.552 572.766 412.671C574.396 413.789 575.821 414.501 575.821 414.196C575.821 413.891 577.247 414.4 578.876 415.213C580.505 416.027 582.236 416.739 582.644 416.637C583.153 416.637 583.764 417.146 584.171 417.96C584.578 418.672 584.985 420.604 584.985 422.333C584.985 424.164 584.171 426.198 582.949 427.419C581.32 428.945 580.098 429.25 577.858 428.64C576.127 428.233 571.952 425.995 568.388 423.656C564.926 421.316 561.973 418.977 561.769 418.57C561.668 418.061 559.937 416.231 558.002 414.4C556.067 412.671 553.114 408.602 551.485 405.551C548.736 400.465 548.43 400.16 547.921 402.499C547.717 403.923 547.208 409.009 546.903 413.891C546.496 419.791 545.681 423.757 544.561 425.588C543.543 427.216 542.321 428.741 541.71 429.148C541.201 429.555 539.164 429.962 537.331 429.962C535.6 429.962 532.749 429.148 531.018 428.131C529.389 427.216 527.556 425.385 526.945 424.062C526.436 422.842 525.316 420.604 524.603 419.078C523.687 417.044 523.381 405.449 523.483 371.07C523.585 328.553 523.687 325.502 525.52 322.858C526.538 321.332 528.778 319.704 530.509 319.196C532.138 318.687 533.767 318.179 534.073 318.179V318.179ZM549.448 348.388C548.634 349.913 547.819 354.287 547.514 358.254C547.242 363 547.65 367.476 548.736 371.68C549.856 375.952 551.281 378.902 553.114 380.631C554.743 381.953 557.187 383.174 558.816 383.174C560.446 383.174 562.788 382.055 564.519 380.326C566.25 378.8 568.083 376.359 568.592 374.731C569.203 373.206 570.017 369.137 570.323 365.577C570.73 361 570.424 357.847 569.203 354.185C568.286 351.337 566.453 348.082 565.231 346.76C563.602 345.031 562.075 344.523 558.511 344.624C555.965 344.726 553.216 344.929 552.401 345.235C551.485 345.438 550.161 346.862 549.448 348.388V348.388Z" fill="#6D7AC4"/>
<path d="M637.426 317.67C639.055 317.975 640.582 318.586 640.786 319.094C640.888 319.704 641.702 320.111 642.517 320.111C643.331 320.111 644.757 321.23 645.572 322.654C646.895 324.79 647.099 332.622 647.201 374.223C647.303 409.111 646.997 423.452 646.183 423.554C645.572 423.757 645.062 424.571 645.062 425.385C645.062 426.199 643.128 427.826 640.684 429.046C637.935 430.369 635.287 430.877 633.353 430.572C631.723 430.267 629.076 428.945 627.65 427.724C626.123 426.402 624.697 424.469 624.29 423.351C623.985 422.232 623.476 406.67 623.272 388.768C623.068 370.866 623.272 348.795 623.781 339.64C624.596 324.587 624.901 322.959 626.938 320.722C628.261 319.399 630.4 318.077 631.825 317.772C633.251 317.467 635.796 317.467 637.426 317.67V317.67Z" fill="#6D7AC4"/>
<path opacity="0.9" d="M464.221 298.752C464.832 298.65 465.952 299.362 466.665 300.277C467.479 301.294 467.581 302.413 466.869 303.837C466.359 304.956 465.341 305.872 464.832 305.872C464.323 305.872 464.017 306.177 464.221 306.685C464.425 307.092 464.017 308.211 463.203 309.228C462.388 310.143 460.963 310.855 460.046 310.652C458.722 310.449 458.315 309.533 458.519 307.601C458.621 306.075 459.741 303.43 460.963 301.803C462.185 300.176 463.61 298.752 464.221 298.752Z" fill="#5F70D5"/>
<path fill-rule="evenodd" clip-rule="evenodd" d="M32.6034 294.785C38.0001 294.683 42.4804 295.293 45.637 296.412C48.3863 297.429 52.663 300.175 55.1068 302.515C57.5506 304.956 59.8925 306.889 60.2998 306.889C60.809 306.889 61.8272 308.109 62.54 309.635C63.3546 311.161 64.0674 313.195 64.0674 314.11C64.1692 315.026 64.882 316.551 65.6966 317.568C66.7148 318.891 67.224 321.739 67.224 327.13C67.224 332.52 66.7148 335.979 65.3911 338.42C64.4747 340.352 63.5582 342.387 63.5582 342.997C63.5582 343.505 61.6236 346.455 59.2816 349.506C56.9396 352.558 54.6994 354.897 54.394 354.592C53.9867 354.389 52.8666 354.999 51.8483 355.914C50.7283 356.83 46.9607 358.661 43.295 359.881C38.2038 361.509 35.2508 361.916 30.5669 361.407C27.2067 361.102 23.7446 360.186 22.93 359.271C22.1154 358.457 20.4862 357.745 19.3661 357.745C18.246 357.745 14.784 355.304 11.6274 352.456C8.47082 349.506 4.80511 345.031 3.48138 342.488C1.64853 338.725 1.13941 336.08 1.03759 328.248C0.833936 320.213 1.13941 318.179 2.76861 316.043C3.78686 314.619 4.60147 312.991 4.60147 312.483C4.60147 311.873 6.84162 308.821 9.69273 305.668C12.442 302.515 15.8022 299.565 17.0241 299.158C18.246 298.751 19.4679 298.141 19.7734 297.836C20.0789 297.531 21.3008 296.717 22.4209 296.005C23.541 295.395 28.1231 294.785 32.6034 294.785V294.785ZM21.9117 302.82C21.0971 302.82 17.9406 305.159 14.9876 307.906C10.9146 311.873 9.1836 314.415 7.65622 319.094C6.53615 322.451 5.61972 326.723 5.61972 328.452C5.61972 330.283 6.3325 333.232 7.1471 334.86C8.06352 336.487 8.67448 338.521 8.67448 339.132C8.67448 339.844 10.5073 342.285 12.7475 344.523C14.9876 346.76 16.8205 348.998 16.8205 349.608C16.8205 350.117 17.7369 350.625 18.857 350.625C19.9771 350.625 21.5045 351.236 22.2172 351.846C22.93 352.558 24.5592 353.778 25.7811 354.389C27.003 355.101 30.7705 355.711 34.1308 355.711C37.491 355.711 41.3604 355.202 42.7859 354.694C44.2115 354.084 47.2662 352.151 49.6082 350.32C51.9502 348.591 54.394 346.557 55.0049 346.048C55.6159 345.438 56.4305 344.217 56.8378 343.2C57.2451 342.285 57.9579 341.471 58.5688 341.471C59.1798 341.471 59.4852 340.861 59.3834 340.149C59.3834 339.539 59.4852 338.216 59.7907 337.403C60.0962 336.589 60.809 334.148 61.5217 332.012C62.4382 328.96 62.3363 327.231 60.9108 322.858C59.9944 320.01 59.2816 317.06 59.3834 316.551C59.4852 315.941 58.8743 315.026 57.856 314.415C56.8378 313.805 55.3104 311.771 54.4958 310.042C53.6812 308.211 51.441 305.871 49.6082 304.753C47.8772 303.735 45.5352 302.82 44.5169 302.82C43.6005 302.82 41.4622 302.108 39.7312 301.294C38.0001 300.379 34.6399 299.769 32.0943 299.769C29.5486 299.769 26.5957 300.481 25.4756 301.294C24.3556 302.21 22.7263 302.82 21.9117 302.82Z" fill="#AFB4D9"/>
<path d="M23.9482 309.94C24.2537 309.94 25.0683 310.449 25.7811 311.161C26.4938 311.873 27.003 313.093 27.003 313.703C27.003 314.415 25.5774 316.246 23.9482 317.772C21.9117 319.603 20.9953 321.23 21.4026 322.349C21.7081 323.468 21.4026 324.18 20.588 324.18C19.6715 324.18 19.5697 325.706 20.0788 330.486C20.4861 334.046 20.588 337.911 20.3843 339.233C20.0788 340.454 19.2642 341.471 18.5515 341.471C17.9405 341.471 16.4132 340.047 15.3949 338.216C13.9693 335.877 13.3584 332.825 13.3584 328.553C13.2566 325.095 13.4602 321.942 13.7657 321.535C14.173 321.027 15.4967 318.687 16.7186 316.348C18.0423 313.907 20.0788 311.567 21.3007 310.957C22.5226 310.449 23.6427 310.042 23.9482 309.94Z" fill="#AFB4D9"/>
<path fill-rule="evenodd" clip-rule="evenodd" d="M53.0026 134.269C56.4874 134.203 59.3804 134.597 61.4186 135.319C63.1939 135.976 65.9554 137.75 67.5334 139.26C69.1114 140.836 70.6237 142.084 70.8867 142.084C71.2154 142.084 71.8729 142.872 72.3332 143.858C72.8592 144.843 73.3194 146.156 73.3194 146.747C73.3852 147.339 73.8455 148.324 74.3715 148.98C75.029 149.834 75.3577 151.673 75.3577 155.154C75.3577 158.635 75.029 160.868 74.1742 162.445C73.5824 163.692 72.9907 165.006 72.9907 165.4C72.9907 165.728 71.7414 167.633 70.2292 169.603C68.7169 171.574 67.2704 173.084 67.0732 172.887C66.8102 172.756 66.0869 173.15 65.4294 173.741C64.7062 174.332 62.2734 175.514 59.9064 176.303C56.6189 177.353 54.7121 177.616 51.6876 177.288C49.5178 177.091 47.2823 176.5 46.7563 175.909C46.2303 175.383 45.1783 174.923 44.4551 174.923C43.7318 174.923 41.4963 173.347 39.458 171.508C37.4198 169.603 35.0528 166.714 34.198 165.072C33.0145 162.642 32.6857 160.934 32.62 155.877C32.4885 150.688 32.6857 149.375 33.7378 147.995C34.3953 147.076 34.9213 146.025 34.9213 145.697C34.9213 145.303 36.3678 143.332 38.2088 141.296C39.984 139.26 42.1538 137.355 42.9428 137.093C43.7318 136.83 44.5208 136.436 44.7181 136.239C44.9153 136.042 45.7043 135.516 46.4276 135.057C47.1508 134.663 50.1096 134.269 53.0026 134.269V134.269ZM46.0988 139.457C45.5728 139.457 43.5346 140.968 41.6278 142.741C38.9978 145.303 37.88 146.944 36.8938 149.966C36.1705 152.133 35.5788 154.892 35.5788 156.008C35.5788 157.19 36.039 159.095 36.565 160.146C37.1568 161.197 37.5513 162.51 37.5513 162.904C37.5513 163.364 38.7348 164.94 40.1813 166.385C41.6278 167.83 42.8113 169.275 42.8113 169.669C42.8113 169.998 43.4031 170.326 44.1263 170.326C44.8496 170.326 45.8358 170.72 46.2961 171.114C46.7563 171.574 47.8083 172.362 48.5973 172.756C49.3863 173.216 51.8191 173.61 53.9889 173.61C56.1586 173.61 58.6571 173.281 59.5776 172.953C60.4981 172.559 62.4706 171.311 63.9829 170.129C65.4952 169.012 67.0732 167.699 67.4677 167.37C67.8622 166.976 68.3882 166.188 68.6512 165.531C68.9142 164.94 69.3744 164.415 69.7689 164.415C70.1634 164.415 70.3607 164.021 70.2949 163.561C70.2949 163.167 70.3607 162.313 70.5579 161.788C70.7552 161.262 71.2154 159.686 71.6757 158.307C72.2674 156.336 72.2017 155.22 71.2812 152.396C70.6894 150.557 70.2292 148.652 70.2949 148.324C70.3607 147.93 69.9662 147.339 69.3087 146.944C68.6512 146.55 67.6649 145.237 67.1389 144.12C66.6129 142.938 65.1664 141.427 63.9829 140.705C62.8651 140.048 61.3529 139.457 60.6954 139.457C60.1036 139.457 58.7229 138.997 57.6051 138.472C56.4874 137.881 54.3176 137.487 52.6738 137.487C51.0301 137.487 49.1233 137.947 48.4001 138.472C47.6768 139.063 46.6248 139.457 46.0988 139.457Z" fill="#AFB4D9"/>
<path d="M47.4137 144.055C47.611 144.055 48.137 144.383 48.5972 144.843C49.0575 145.303 49.3862 146.091 49.3862 146.485C49.3862 146.945 48.4657 148.127 47.4137 149.112C46.0987 150.294 45.507 151.345 45.77 152.067C45.9672 152.79 45.77 153.25 45.244 153.25C44.6522 153.25 44.5865 154.235 44.9152 157.322C45.1782 159.62 45.244 162.116 45.1125 162.97C44.9152 163.758 44.3892 164.415 43.929 164.415C43.5345 164.415 42.5482 163.495 41.8907 162.313C40.9702 160.803 40.5757 158.832 40.5757 156.074C40.5099 153.841 40.6414 151.805 40.8387 151.542C41.1017 151.214 41.9564 149.703 42.7454 148.192C43.6002 146.616 44.9152 145.106 45.7042 144.711C46.4932 144.383 47.2165 144.12 47.4137 144.055Z" fill="#AFB4D9"/>
<path fill-rule="evenodd" clip-rule="evenodd" d="M860.321 211.786C864.089 212.092 868.365 213.21 871.522 214.838C874.373 216.262 878.14 219.313 879.973 221.754C882.926 225.416 883.232 226.535 882.723 229.586C882.315 231.519 882.01 235.486 882.112 238.232C882.213 241.08 881.704 246.471 881.093 250.438C880.482 254.404 879.362 258.575 878.548 259.897C877.733 261.117 877.122 262.541 877.122 263.152C877.122 263.762 875.798 266.203 874.067 268.746C872.336 271.289 871.013 274.035 871.013 274.849C871.013 275.662 867.754 279.934 863.681 284.308C859.71 288.58 855.23 293.259 853.702 294.683C852.175 296.107 849.629 298.345 848 299.769C846.371 301.192 843.52 303.125 841.687 304.04C839.956 305.058 837.919 305.668 837.41 305.363C836.901 305.058 834.661 305.566 832.523 306.38C829.366 307.702 827.839 307.804 822.646 306.685C817.86 305.668 815.62 304.549 812.158 301.294C808.899 298.243 807.474 296.005 806.659 292.14C805.946 289.292 805.437 283.393 805.437 278.917C805.437 274.442 805.946 268.339 806.659 265.389C807.372 262.541 808.288 259.287 808.798 258.269C809.307 257.354 811.14 253.489 812.871 249.624C814.602 245.86 816.944 242.199 818.064 241.487C819.184 240.877 819.896 239.961 819.591 239.453C819.285 239.046 819.795 237.723 820.609 236.401C821.526 235.181 825.497 230.807 829.57 226.738C833.541 222.67 838.53 218.601 840.465 217.686C842.4 216.77 844.233 215.753 844.538 215.448C844.844 215.143 847.084 214.024 849.629 213.109C852.888 211.786 856.044 211.481 860.321 211.786ZM847.593 243.724C845.658 245.759 843.113 248.708 841.992 250.336C840.872 251.963 839.141 254.506 838.225 255.93C837.309 257.354 835.578 260.609 834.356 263.152C833.134 265.695 832.014 268.848 831.708 270.272C831.403 271.696 830.486 274.544 829.672 276.68C828.857 278.714 828.246 283.088 828.246 286.342C828.144 290.614 828.653 292.649 829.977 293.869C830.995 294.886 833.337 295.7 835.17 295.7C836.901 295.7 840.567 294.581 843.316 293.259C845.964 291.835 850.444 288.275 853.295 285.325C856.146 282.376 860.117 277.493 862.154 274.645C864.19 271.696 866.94 267.322 868.06 264.983C869.282 262.541 870.911 258.575 871.624 256.032C872.438 253.489 873.049 249.42 873.049 246.878C873.049 243.114 872.54 241.69 869.791 238.842C867.958 237.011 865.412 235.079 864.19 234.57C862.867 234.062 861.543 233.655 861.136 233.655C860.627 233.655 858.285 235.079 855.739 236.808C853.193 238.537 849.528 241.69 847.593 243.724Z" fill="#70B3B2"/>
<path d="M156.2 205.277C160.375 205.277 165.466 205.684 167.401 206.193C169.335 206.803 171.779 208.125 172.797 209.244C173.714 210.363 174.528 211.685 174.528 212.295C174.528 212.804 173.917 214.024 173.103 214.838C172.085 215.855 169.641 216.364 165.975 216.364C162.818 216.364 159.153 216.974 157.727 217.584C155.996 218.5 154.876 220.026 154.469 222.467C154.061 224.399 153.756 229.485 153.756 233.655C153.654 238.944 154.367 243.623 156.098 248.912C157.422 253.082 158.644 256.947 158.847 257.558C159.051 258.066 159.866 259.389 160.476 260.507C161.189 261.525 163.328 264.067 165.059 266.102C166.891 268.136 168.419 269.967 168.419 270.272C168.419 270.577 170.761 272.611 173.714 274.849C176.667 277.087 180.638 279.731 182.674 280.748C184.609 281.664 187.969 282.478 190.006 282.478C192.144 282.478 193.875 281.969 193.875 281.46C193.875 280.85 194.792 279.223 195.912 277.595C197.439 275.561 198.05 273.323 197.948 269.255C197.948 266.203 197.134 261.728 196.115 259.287C194.588 255.422 194.588 254.812 195.912 253.388C196.828 252.37 198.355 252.065 199.679 252.37C201.207 252.777 202.836 254.71 204.261 257.761C206.094 261.626 206.603 264.373 206.603 270.781C206.501 275.256 206.196 280.952 205.789 283.495C205.381 286.241 204.058 289.191 202.53 290.818C201.105 292.445 199.985 293.971 199.985 294.378C199.883 294.887 197.948 296.514 195.606 298.141C191.839 300.786 190.311 301.193 182.165 301.6C175.139 301.905 171.881 301.6 168.419 300.277C165.873 299.26 162.92 297.633 161.8 296.616C160.68 295.599 159.153 294.683 158.44 294.683C157.829 294.683 154.061 291.428 150.09 287.563C146.119 283.596 142.963 279.731 142.963 278.918C142.963 278.104 142.657 277.392 142.148 277.392C141.741 277.494 140.111 274.849 138.482 271.594C136.853 268.339 135.122 264.779 134.613 263.661C134.206 262.542 133.289 260.202 132.678 258.575C131.965 256.846 131.456 248.81 131.354 239.453C131.354 230.502 131.558 223.077 131.965 222.874C132.475 222.67 132.78 221.755 132.78 220.941C132.78 220.127 134.002 217.584 135.529 215.347C137.159 213.109 138.584 211.278 138.89 211.278C139.195 211.278 140.621 210.159 141.944 208.837C143.37 207.515 145.406 206.193 146.526 205.887C147.647 205.582 152.025 205.379 156.2 205.277V205.277Z" fill="#70B3B2"/>
<path fill-rule="evenodd" clip-rule="evenodd" d="M239.187 156.353C240.613 156.353 244.177 156.963 247.13 157.777C249.981 158.489 254.258 160.014 256.498 161.235C258.738 162.354 264.135 166.931 268.513 171.508C272.79 176.085 276.354 180.154 276.354 180.764C276.354 181.374 277.474 182.697 278.899 183.815C280.325 184.934 281.445 186.562 281.445 187.375C281.445 188.189 282.056 189.104 282.769 189.206C283.38 189.41 285.009 191.749 286.333 194.292C287.554 196.936 288.878 199.072 289.387 199.072C289.795 198.971 290.813 200.395 291.627 202.124C292.442 203.853 293.46 205.277 293.969 205.175C294.377 205.175 294.682 205.887 294.682 206.701C294.682 207.515 294.988 208.328 295.497 208.532C295.904 208.633 297.228 210.261 298.552 212.092C299.773 213.821 300.792 215.753 300.792 216.364C300.792 216.974 301.199 217.381 301.81 217.381C302.421 217.381 303.134 218.398 303.541 219.72C303.948 220.941 304.967 222.67 305.883 223.484C307.105 224.602 307.614 226.637 307.512 230.807C307.41 235.486 306.901 237.011 304.865 239.147C302.726 241.385 301.505 241.792 296.719 241.792C291.526 241.792 290.813 241.487 286.231 237.215C283.583 234.672 281.445 231.926 281.445 231.112C281.445 230.298 281.038 229.586 280.427 229.586C279.816 229.586 279.001 228.468 278.39 227.044C277.779 225.62 276.965 224.501 276.354 224.501C275.743 224.501 275.335 223.89 275.335 223.28C275.335 222.568 274.317 220.941 272.993 219.619C271.772 218.398 270.041 217.381 269.226 217.381C268.411 217.381 267.088 218.296 266.477 219.415C265.764 220.534 264.44 221.449 263.626 221.449C262.811 221.449 260.876 222.263 259.349 223.382C257.72 224.399 255.072 225.518 253.443 226.026C251.814 226.433 249.37 227.654 248.148 228.671C246.824 229.688 245.195 230.4 244.584 230.095C243.871 229.79 242.242 230.502 241.02 231.621C239.697 232.74 238.678 233.96 238.678 234.469C238.678 234.876 239.9 238.435 241.529 242.402C243.057 246.369 244.788 250.234 245.399 251.048C246.01 251.862 247.944 255.422 249.675 259.083C252.221 264.372 252.628 266 251.61 267.017C250.897 267.729 249.37 268.339 248.148 268.238C246.417 268.238 245.602 267.424 245.093 265.491C244.788 263.864 244.177 262.44 243.77 262.135C243.362 261.83 241.733 259.083 240.206 256.032C238.678 252.98 236.846 249.726 236.133 248.912C235.42 248.098 234.3 245.657 233.689 243.623C232.976 241.182 231.958 239.758 230.838 239.656C229.82 239.656 227.681 239.453 225.95 239.453C223.506 239.249 222.794 238.639 222.081 235.689C221.47 233.452 221.47 231.417 222.081 230.095C222.692 228.976 223.71 226.942 224.321 225.518C225.237 223.484 225.237 221.754 223.914 216.872C222.997 213.516 221.979 210.363 221.572 209.752C221.266 209.142 220.452 205.989 219.943 202.632C219.433 199.276 219.026 191.952 219.026 186.358C219.128 180.764 219.332 175.068 219.535 173.644C219.841 172.22 220.35 169.982 220.757 168.558C221.266 167.134 222.895 164.49 224.525 162.659C226.561 160.421 228.801 159.201 231.347 158.692C233.485 158.387 235.624 157.675 236.031 157.268C236.438 156.76 237.864 156.353 239.187 156.353V156.353ZM226.459 188.901C226.459 192.868 227.478 199.988 228.7 204.972C229.921 209.854 231.245 213.923 231.754 214.126C232.162 214.228 232.569 215.041 232.569 215.855C232.569 217.177 233.282 217.076 236.642 215.347C238.882 214.228 240.715 213.007 240.715 212.6C240.715 212.092 241.326 211.787 242.039 211.685C242.65 211.685 245.806 210.464 248.861 209.04C251.916 207.515 255.785 205.989 257.414 205.48C259.043 205.073 260.571 204.056 260.774 203.446C260.876 202.734 259.858 200.395 258.331 198.36C256.803 196.224 254.156 192.97 252.425 191.037C250.796 189.206 248.25 186.663 246.926 185.443C245.501 184.324 243.464 182.391 242.344 181.273C241.224 180.154 239.086 178.628 237.66 177.916C236.235 177.204 233.994 176.695 232.569 176.695C231.041 176.695 229.31 177.814 228.19 179.238C226.968 181.069 226.459 183.714 226.459 188.901Z" fill="#BA80B6"/>
<path fill-rule="evenodd" clip-rule="evenodd" d="M752.386 154.318C753.506 154.318 755.95 154.827 757.885 155.539C759.718 156.251 762.162 158.183 763.18 159.913C764.198 161.642 765.115 164.795 765.115 171.101H771.428C774.992 171.203 779.981 171.711 782.628 172.322C785.276 172.932 788.025 174.152 788.738 174.966C789.451 175.78 790.978 176.695 792.098 177C793.218 177.407 795.458 179.645 796.986 181.984C798.513 184.426 800.041 187.477 800.346 188.901C800.652 190.325 801.161 192.156 801.568 192.969C801.975 193.783 802.077 199.072 801.67 204.666C801.364 210.261 800.448 216.465 799.735 218.398C799.022 220.33 797.8 223.178 797.088 224.806C796.273 226.331 795.764 227.857 795.866 228.162C796.069 228.467 794.949 230.502 793.32 232.739C791.793 234.875 790.571 237.113 790.571 237.723C790.571 238.334 787.618 241.69 783.952 245.352C780.185 249.115 774.584 253.387 770.919 255.32C764.911 258.371 764.096 258.575 753.914 258.473C744.648 258.371 742.509 257.964 737.622 255.727C734.567 254.201 731.41 252.98 730.698 252.98C730.087 252.98 728.254 254.099 726.625 255.421C724.588 257.252 722.857 257.761 719.802 257.557C717.562 257.456 714.609 257.049 713.184 256.642C711.656 256.235 709.925 254.404 708.703 252.167C707.176 249.115 706.972 247.183 707.583 242.3C707.889 238.944 709.111 234.977 710.231 233.35C711.249 231.824 711.962 230.197 711.656 229.586C711.351 228.976 711.86 227.043 712.776 225.213C713.693 223.483 715.118 219.618 715.933 216.872C716.748 214.024 718.275 210.261 719.395 208.43C720.413 206.701 721.126 205.175 720.821 205.175C720.515 205.175 721.024 203.446 721.941 201.31C722.755 199.276 725.301 193.885 727.439 189.409C729.679 184.934 732.123 179.645 732.938 177.712C733.854 175.78 734.974 173.44 735.483 172.627C735.993 171.813 737.113 169.474 737.927 167.541C738.844 165.609 740.982 162.252 742.713 160.014C744.444 157.878 746.888 155.742 748.11 155.234C749.332 154.827 751.266 154.42 752.386 154.318ZM753.812 192.257C753.914 192.664 752.794 195.411 751.368 198.36C749.943 201.208 748.823 204.361 748.823 205.175C748.823 205.989 747.906 207.82 746.786 209.244C745.666 210.668 744.75 212.397 744.75 213.109C744.75 213.719 744.139 215.855 743.324 217.686C742.509 219.415 741.288 222.365 740.575 223.992C739.862 225.619 739.149 228.162 738.945 229.586C738.844 231.01 738.233 232.536 737.622 233.146C737.011 233.757 736.604 234.977 736.604 235.994C736.604 236.91 737.52 238.13 738.64 238.74C739.76 239.351 743.324 239.758 746.582 239.758C751.368 239.656 753.201 239.147 756.663 236.706C759.107 234.977 761.347 233.655 761.754 233.655C762.263 233.655 763.994 231.621 765.827 229.281C767.558 226.942 770.409 222.365 772.141 219.212C773.872 215.957 775.297 212.498 775.297 211.583C775.297 210.566 775.704 209.345 776.214 208.735C776.824 208.125 777.537 204.361 777.843 200.395C778.148 196.021 777.843 191.851 777.232 190.223C776.621 188.596 775.399 186.867 774.482 186.155C773.464 185.443 769.697 184.832 765.929 184.832C759.412 184.832 759.005 184.934 756.459 188.189C754.932 190.121 753.812 191.952 753.812 192.257Z" fill="#6D7AC4"/>
<path d="M635.084 118.82C637.629 118.719 638.953 119.227 639.258 120.244C639.462 121.058 640.379 121.77 641.295 121.77C642.211 121.77 642.924 122.482 642.924 123.296C642.924 124.109 643.637 125.025 644.452 125.33C645.47 125.635 645.979 127.263 645.979 130.416C645.979 132.959 646.488 134.993 646.997 134.993C647.608 134.993 648.015 135.908 648.015 137.027C648.015 138.146 648.423 139.875 648.932 140.892C649.441 141.808 650.663 146.08 651.579 150.25C652.496 154.42 653.921 159.302 654.634 160.93C655.347 162.659 656.976 166.626 658.096 169.881C659.318 173.034 660.234 176.492 660.234 177.509C660.336 178.424 661.151 181.069 662.271 183.307C663.391 185.544 664.206 188.291 664.206 189.409C664.307 190.528 664.613 191.851 665.122 192.461C665.631 193.071 666.751 195.512 667.668 198.055C668.686 200.598 669.806 203.344 670.315 204.158C671.13 205.48 671.537 205.378 673.064 203.649C674.184 202.429 674.897 199.988 674.999 197.241C674.999 194.8 675.61 192.563 676.323 192.156C677.036 191.749 677.85 189.409 678.054 186.867C678.359 184.324 679.276 180.255 680.192 177.712C681.109 175.17 681.516 172.525 681.21 171.915C680.905 171.203 681.312 169.27 682.127 167.541C682.941 165.914 683.858 161.845 684.061 158.692C684.265 155.437 685.283 150.046 686.2 146.69C687.116 143.333 687.829 139.672 687.625 138.553C687.524 137.434 687.625 135.501 688.033 134.281C688.542 132.552 689.56 131.941 691.596 131.941C693.735 131.941 694.448 132.45 694.651 134.179C694.753 135.501 693.837 142.926 692.717 150.758C691.495 158.59 690.069 165.405 689.662 166.015C689.153 166.626 688.745 168.05 688.745 169.372C688.745 170.593 688.033 172.932 687.218 174.661C686.403 176.39 685.792 178.323 685.894 179.035C685.996 179.645 685.691 182.595 685.283 185.341C684.876 188.189 684.163 191.342 683.654 192.461C683.145 193.58 682.534 195.919 682.127 197.547C681.821 199.174 681.109 202.429 680.701 204.666C680.192 206.904 679.174 210.769 678.257 213.312C677.341 215.855 676.526 219.008 676.526 220.432C676.526 221.856 677.239 224.806 678.156 227.043C679.072 229.383 679.479 232.434 679.174 234.163C678.868 235.791 677.341 238.435 675.814 239.859C673.37 242.097 672.148 242.402 666.853 242.199C661.864 242.097 660.336 241.588 658.402 239.656C657.078 238.334 655.55 235.384 654.838 233.146C654.227 230.909 653.718 228.061 653.718 226.84C653.616 225.619 652.903 223.992 651.987 223.28C651.172 222.568 648.932 217.381 646.997 211.786C645.164 206.192 643.026 200.395 642.313 198.869C641.499 197.241 640.888 195.004 640.888 193.783C640.989 192.461 640.277 190.732 639.36 189.918C638.444 189.104 637.731 187.477 637.731 186.358C637.833 185.239 637.222 183.205 636.509 181.781C635.695 180.357 634.778 177.611 634.269 175.678C633.862 173.746 633.149 171.711 632.742 171.101C632.334 170.491 631.723 168.863 631.316 167.338C631.011 165.71 630.298 164.49 629.687 164.49C629.178 164.49 628.363 165.303 627.956 166.321C627.65 167.236 626.836 168.355 626.225 168.762C625.614 169.169 625.003 171.508 625.003 173.847C624.901 176.288 624.087 181.883 623.068 186.358C622.05 190.833 620.828 196.529 620.319 199.072C619.81 201.615 618.995 207.514 618.384 212.295C617.875 217.076 617.162 222.263 616.755 223.89C616.246 225.518 615.126 227.349 614.209 227.959C612.784 228.773 612.071 228.773 610.747 227.552C609.424 226.331 609.22 224.501 609.729 217.177C610.035 212.193 610.849 208.023 611.358 207.718C611.969 207.413 612.377 204.768 612.377 201.92C612.377 198.869 613.497 193.478 614.922 189.409C616.348 185.443 617.264 181.476 616.959 180.56C616.653 179.543 617.162 177.204 618.079 175.475C618.995 173.644 619.912 169.575 620.115 166.524C620.421 163.473 621.134 160.625 621.846 160.218C622.457 159.811 623.17 157.471 623.374 155.132C623.577 152.691 623.781 149.131 623.781 147.198C623.781 145.266 623.679 139.265 623.476 133.976C623.17 125.839 623.374 124.008 624.901 122.584C625.818 121.567 627.65 120.346 628.974 119.838C630.196 119.227 632.945 118.82 635.084 118.82V118.82Z" fill="#E89156"/>
<path d="M377.466 111.701C377.873 111.701 378.688 112.514 379.197 113.633C379.808 114.752 380.215 117.193 380.215 119.024C380.215 120.753 380.928 123.703 381.844 125.33C382.761 127.059 383.576 130.823 383.677 133.772C383.779 136.926 384.288 139.468 385.103 139.875C385.816 140.282 386.834 143.842 387.343 147.707C387.852 151.572 388.972 159.404 389.889 164.999C390.805 170.593 391.823 180.357 392.231 186.663C392.638 192.97 393.453 198.462 394.063 198.869C394.674 199.276 396.609 201.717 398.34 204.463C400.173 207.108 401.802 210.77 402.108 212.6C402.413 214.431 402.108 216.974 401.395 218.398C400.58 219.822 398.646 221.551 397.016 222.365C395.285 223.179 391.721 223.789 388.87 223.789C383.983 223.687 383.575 223.484 378.382 217.788C375.429 214.431 373.087 211.176 373.087 210.566C373.087 209.854 372.273 208.939 371.255 208.532C370.236 208.023 367.182 205.175 364.432 202.124C361.785 199.072 356.49 193.377 352.621 189.41C348.853 185.443 345.697 181.883 345.595 181.273C345.595 180.662 344.169 179.137 342.438 177.713C340.707 176.289 337.55 173.034 335.514 170.288C333.477 167.643 331.237 165.507 330.626 165.507C329.608 165.507 329.404 167.134 329.914 171.915C330.219 175.373 330.932 180.052 331.543 182.29C332.052 184.527 332.256 188.087 331.95 190.223C331.543 192.868 331.746 194.394 332.867 195.513C333.681 196.326 334.801 199.479 335.412 202.429C335.921 205.277 337.449 211.583 338.671 216.364C339.994 221.551 340.605 226.128 340.198 227.857C339.791 229.383 338.874 230.604 338.263 230.604C337.55 230.604 336.125 230.095 335.107 229.383C334.088 228.671 333.172 226.637 332.968 225.009C332.867 223.382 332.561 221.551 332.256 220.941C331.848 220.331 330.525 215.753 329.303 210.77C328.081 205.786 326.961 199.581 326.757 197.038C326.655 194.495 326.146 190.834 325.739 188.901C325.331 186.969 324.415 184.731 323.804 184.019C323.193 183.205 322.989 181.476 323.397 179.95C323.702 178.425 323.397 174.254 322.48 170.593C321.666 166.931 320.851 161.133 320.749 157.573C320.648 152.589 320.24 150.962 318.916 150.148C317.898 149.64 317.084 148.521 317.084 147.707C317.084 146.894 316.676 146.08 316.269 145.978C315.862 145.775 314.436 144.147 313.214 142.418C311.992 140.587 311.178 138.35 311.483 137.536C311.789 136.722 311.585 135.298 310.974 134.484C310.261 133.467 310.363 131.433 311.28 128.28C311.891 125.737 313.418 123.093 314.538 122.381C315.658 121.669 317.695 120.855 319.12 120.55C320.546 120.143 323.193 120.346 325.026 120.855C326.757 121.363 329.506 122.991 330.932 124.618C332.357 126.144 335.718 130.619 338.365 134.484C341.114 138.35 344.067 142.316 344.984 143.13C345.9 143.944 346.715 145.063 346.715 145.673C346.715 146.283 347.733 147.606 348.955 148.724C350.177 149.843 352.112 152.081 353.13 153.81C354.25 155.539 357.712 159.608 360.767 162.863C363.923 166.219 368.913 171.305 371.866 174.356C374.717 177.306 377.16 180.154 377.16 180.764C377.16 181.374 378.382 182.9 380.012 184.324C381.539 185.646 383.372 186.867 384.085 186.867C384.899 186.867 385.307 185.138 385.205 181.069C385.103 177.814 384.492 172.932 383.677 170.084C382.965 167.338 381.641 160.218 380.623 154.319C379.706 148.419 378.892 142.52 378.993 141.096C378.993 139.672 378.179 136.01 377.059 132.959C375.939 129.907 375.328 126.653 375.633 125.839C376.04 125.025 375.531 122.482 374.615 120.245C373.8 118.007 372.986 115.362 372.782 114.447C372.68 113.532 373.495 112.616 374.615 112.311C375.735 112.006 376.957 111.802 377.466 111.701V111.701Z" fill="#E89156"/>
<path fill-rule="evenodd" clip-rule="evenodd" d="M553.623 111.192C556.576 111.396 559.937 112.616 562.482 114.447C564.824 115.973 566.657 117.498 566.555 118.007C566.555 118.414 567.675 119.736 568.999 121.058C570.628 122.381 571.85 125.025 572.359 127.975C572.767 130.518 573.683 133.264 574.396 134.078C575.007 134.891 575.821 138.248 576.229 141.605C576.534 144.961 577.145 161.235 577.552 177.713C578.062 201.005 577.96 208.227 577.043 210.058C576.33 211.278 575.72 212.702 575.72 213.312C575.72 213.923 575.109 214.94 574.498 215.652C573.785 216.466 572.054 217.279 570.628 217.584C569.203 217.89 567.675 218.296 567.064 218.398C566.555 218.602 564.01 218.296 561.668 217.788C557.493 216.974 557.086 216.567 556.067 212.499C555.355 210.159 554.54 208.227 554.133 208.227C553.623 208.227 553.318 202.022 553.318 180.764H549.041C546.598 180.764 541.71 180.256 538.044 179.747C534.378 179.137 529.389 178.425 526.843 178.018C524.298 177.713 520.938 177.408 519.207 177.306C516.355 177.204 516.152 177.408 514.319 184.833C513.301 189.003 512.282 196.326 511.977 201.107C511.671 205.887 510.857 210.363 510.246 211.075C509.533 211.787 508.311 212.397 507.497 212.397C506.682 212.397 505.256 211.583 504.442 210.668C503.22 209.346 503.118 207.718 503.729 202.734C504.238 199.378 505.053 196.326 505.46 196.021C505.969 195.716 506.58 191.037 507.497 175.678L504.442 174.661C502.304 173.949 501.183 172.831 500.776 170.898C500.369 168.864 500.776 167.541 502.1 166.219C503.118 165.202 504.849 164.083 505.969 163.778C507.089 163.473 509.228 162.252 510.755 161.032C512.384 159.811 513.504 157.98 513.504 156.862C513.403 155.743 513.912 153.505 514.726 151.776C515.439 150.047 516.05 148.318 516.152 147.707C516.152 147.097 517.17 144.554 518.494 141.91C519.716 139.163 520.734 136.621 520.734 136.01C520.734 135.4 521.243 134.993 521.752 134.993C522.363 134.993 522.567 134.281 522.261 133.467C521.956 132.654 522.669 131.128 523.789 130.213C524.909 129.195 525.52 128.077 525.316 127.67C525.011 127.161 525.316 126.653 525.825 126.347C526.436 126.042 527.963 124.11 529.185 122.076C530.509 119.94 533.564 116.888 536.008 115.159C538.452 113.43 542.321 111.802 544.561 111.396C546.903 111.09 550.874 110.887 553.623 111.192V111.192ZM531.222 133.264C529.389 135.909 527.862 138.451 527.862 139.062C527.862 139.672 526.742 142.52 525.418 145.47C523.992 148.318 522.567 152.691 522.058 155.031L521.243 159.303C527.556 160.32 532.851 161.235 537.026 162.049C541.201 162.863 546.088 163.371 547.819 163.269C550.874 162.964 551.078 162.659 551.587 157.879C551.892 155.132 551.791 149.843 551.281 146.182C550.874 142.52 549.652 137.027 548.736 133.976C547.718 130.925 545.987 127.568 544.765 126.551C543.645 125.534 542.219 124.72 541.608 124.822C541.099 124.822 539.266 125.636 537.535 126.653C535.906 127.67 532.953 130.619 531.222 133.264V133.264Z" fill="#BA80B6"/>
<path d="M461.675 104.886C470.33 105.191 478.884 105.7 480.513 106.208C482.448 106.818 483.873 108.141 484.484 109.87C484.993 111.497 484.891 114.04 484.28 116.379C483.364 119.533 482.549 120.346 479.8 121.058C477.967 121.465 473.385 121.77 462.694 121.77L463.203 134.688C463.508 141.91 464.425 155.844 465.239 165.71C466.054 175.678 466.767 188.799 466.767 195.004C466.767 201.92 466.257 207.209 465.545 208.735C464.832 210.159 463.61 211.278 462.999 211.278C462.286 211.278 461.573 211.787 461.472 212.295C461.268 212.905 459.537 213.414 457.602 213.516C455.668 213.516 452.511 213.312 450.78 212.905C448.133 212.397 447.114 211.583 446.198 208.735C445.485 206.803 444.569 205.175 444.161 205.175C443.652 205.175 443.143 201.208 442.838 196.224C442.532 191.342 441.616 176.594 440.801 163.473C439.987 150.352 439.172 135.908 438.765 123.296L429.091 123.601C422.269 123.805 418.909 123.499 417.687 122.584C416.77 121.872 415.854 119.533 415.65 117.193C415.345 113.633 415.65 113.023 418.909 110.887C421.149 109.463 424.815 108.344 428.582 107.937C431.942 107.632 437.237 106.717 440.292 105.903C444.263 104.886 450.373 104.682 461.675 104.886V104.886Z" fill="#6D7AC4"/>
<path fill-rule="evenodd" clip-rule="evenodd" d="M914.527 114.997C915.647 115.302 918.396 115.912 920.636 116.421C922.877 116.828 925.524 117.438 926.542 117.845C927.459 118.15 928.273 118.862 928.273 119.472C928.273 120.083 929.393 120.693 930.819 120.998C932.346 121.303 934.179 122.931 935.401 125.067C936.521 126.999 937.947 128.627 938.456 128.627C938.965 128.627 939.474 129.542 939.474 130.661C939.474 131.78 939.78 132.899 940.289 133.102C940.696 133.305 941.307 135.747 941.714 138.391C942.121 141.137 942.02 146.63 941.511 150.495C941.001 154.36 940.187 157.818 939.678 158.124C939.168 158.429 938.456 159.649 938.048 160.972C937.743 162.192 936.928 163.209 936.419 163.209C935.91 163.209 935.401 163.921 935.401 164.735C935.401 165.549 934.485 166.464 933.365 166.769C932.244 167.074 931.328 167.685 931.328 168.295C931.328 168.905 929.801 170.024 928.07 170.838C926.237 171.651 922.164 172.974 919.109 173.787C914.221 175.008 912.592 175.008 906.381 173.686C902.511 172.872 899.049 171.957 898.744 171.55C898.438 171.143 897.318 170.227 896.198 169.515C895.078 168.905 893.144 167.786 891.922 167.278C890.598 166.667 889.274 165.142 888.867 163.718C888.358 162.294 887.441 160.87 886.83 160.666C886.118 160.361 885.507 159.141 885.507 157.92C885.507 156.598 884.794 154.665 883.979 153.546C882.859 152.021 882.554 149.681 883.063 143.884C883.368 139.713 883.979 136.153 884.59 136.052C885.099 135.848 885.507 134.933 885.507 134.017C885.507 133 886.118 130.864 887.034 129.135C887.849 127.508 889.987 124.863 891.718 123.338C893.449 121.71 895.18 120.49 895.587 120.49C895.995 120.49 896.911 119.778 897.726 118.964C898.54 118.048 900.882 117.336 902.817 117.336C904.752 117.336 907.705 116.726 909.436 115.912C911.167 115.099 913.407 114.794 914.527 114.997V114.997ZM903.224 122.524C902.104 122.524 899.049 124.456 896.504 126.898C892.635 130.457 891.616 132.187 890.292 137.781C888.765 143.985 888.867 144.901 890.598 152.021C891.718 156.191 892.94 159.751 893.347 159.853C893.754 160.056 896.911 162.192 900.271 164.837L906.381 169.515C919.007 168.6 922.775 167.888 922.978 167.278C923.08 166.769 923.691 166.261 924.302 166.261C924.913 166.261 926.848 164.837 928.579 163.006C930.412 161.175 932.957 158.124 934.281 156.191C936.216 153.343 936.827 150.8 937.132 144.901C937.539 137.577 937.437 137.069 934.485 133.509C932.754 131.373 931.328 129.339 931.328 128.932C931.226 128.423 930.513 127.508 929.495 126.796C928.579 126.084 925.524 124.355 922.673 123.032C919.516 121.405 915.851 120.49 912.999 120.49C910.454 120.49 907.705 120.998 906.89 121.507C906.075 122.015 904.446 122.524 903.224 122.524V122.524Z" fill="#AFB4D9"/>
<path d="M905.668 127.711C906.381 127.61 906.89 128.728 906.89 130.457C906.788 132.085 905.77 134.119 904.039 135.645C901.595 137.883 901.188 139.001 900.781 146.63C900.373 153.852 899.966 155.072 898.541 155.072C897.42 155.072 896.097 153.546 895.078 151.309C894.162 149.173 893.653 146.121 893.958 144.392C894.162 142.663 895.384 139.103 896.606 136.255C897.828 133.305 899.966 130.457 901.595 129.44C903.123 128.525 904.956 127.711 905.668 127.711V127.711ZM912.898 124.558C913.203 124.558 914.12 125.067 914.833 125.779C915.545 126.491 916.054 127.915 916.054 128.932C916.054 129.847 915.342 130.864 914.527 131.169C913.712 131.475 912.592 131.475 911.981 131.169C911.472 130.864 910.861 129.542 910.76 128.321C910.658 126.999 910.963 125.575 911.472 125.27C911.981 124.863 912.592 124.558 912.898 124.558V124.558Z" fill="#AFB4D9"/>
<path d="M421.175 29.5165C431.256 29.4148 441.031 29.72 442.864 30.1268C444.697 30.6354 446.123 31.5508 446.123 32.2628C446.123 33.0765 443.475 33.6868 438.18 34.0936C433.904 34.5005 428.507 34.8056 426.267 34.8056C424.026 34.7039 421.685 35.1108 421.175 35.5176C420.666 35.9245 415.575 37.0433 409.975 37.9588C404.374 38.8742 396.636 40.2982 392.664 41.2136C388.693 42.0273 383.5 43.2478 380.954 43.8581C378.409 44.3667 373.419 45.2821 369.754 45.7907C366.088 46.401 362.015 47.0112 360.589 47.2147C359.164 47.4181 356.924 48.0284 355.498 48.537C354.073 49.0455 349.083 50.4695 344.297 51.5884C339.512 52.8089 333.3 54.2329 330.551 54.7415C327.7 55.3517 322.507 56.4706 318.841 57.2843C315.175 57.9963 307.844 59.6237 302.549 60.8443C297.254 61.9631 290.126 63.3871 286.766 63.8957C283.406 64.4042 274.445 65.8282 266.91 66.9471C259.375 68.1676 252.757 68.8796 252.146 68.6762C251.535 68.4728 246.342 68.8796 240.436 69.6933C234.53 70.507 221.7 71.6259 211.925 72.2362C202.149 72.8464 186.774 73.0499 177.813 72.7447C168.853 72.4396 159.688 72.0327 157.448 71.8293C155.208 71.6259 150.626 70.7105 147.266 69.6933C143.905 68.6762 140.443 67.2522 139.629 66.4385C138.814 65.6248 137.694 65.3197 137.287 65.7265C136.778 66.2351 135.658 65.6248 134.741 64.4042C133.825 63.2854 130.77 60.5391 128.123 58.3014C124.966 55.7586 123.031 53.2158 122.624 51.2832C122.318 49.6558 122.115 45.9941 122.217 43.1461C122.318 38.7725 122.929 37.5519 125.882 34.5005C129.039 31.3474 130.261 30.9405 135.861 30.5337C140.545 30.2285 142.887 30.5337 144.924 31.7542C146.553 32.6697 148.386 35.0091 149.2 36.8399C150.015 38.569 152.459 41.6204 154.597 43.553C156.735 45.3838 160.299 47.7232 162.539 48.7404C164.78 49.6558 168.853 51.1815 171.704 52.0969C174.555 52.9106 185.043 54.2329 195.124 54.9449C207.444 55.7586 217.932 55.8603 227.198 55.25C234.734 54.8432 246.443 54.4363 253.164 54.3346C261.106 54.2329 267.521 53.6226 271.492 52.5038C274.853 51.5883 279.842 50.8764 282.693 50.9781C285.442 51.0798 290.534 50.3678 293.894 49.5541C297.254 48.6387 300.309 48.1301 300.716 48.3335C301.225 48.5369 305.095 47.825 309.371 46.8078C313.75 45.689 318.23 44.8753 319.35 44.8753C320.47 44.8753 323.22 44.265 325.46 43.6547C327.7 43.0444 330.653 42.3324 332.078 42.2307C333.504 42.129 335.337 41.7222 336.151 41.417C336.966 41.1119 339.817 40.3999 342.465 39.6879C345.214 39.0776 347.963 38.8742 348.574 39.1793C349.287 39.4845 353.258 38.7725 357.229 37.6536C361.302 36.4331 366.19 35.5176 367.921 35.5176C369.754 35.5176 373.114 34.8056 375.354 33.9919C377.594 33.1782 381.667 32.4662 384.518 32.3645C387.268 32.3645 392.563 31.6525 396.228 30.9405C399.894 30.2285 411.095 29.6183 421.175 29.5165V29.5165Z" fill="#70B3B2"/>
<path d="M596.186 29.5165C586.106 29.4148 576.33 29.72 574.498 30.1268C572.665 30.6354 571.239 31.5508 571.239 32.2628C571.239 33.0765 573.887 33.6868 579.181 34.0936C583.458 34.5005 588.855 34.8056 591.095 34.8056C593.335 34.7039 595.677 35.1108 596.186 35.5176C596.695 35.9245 601.787 37.0433 607.387 37.9588C612.987 38.8742 620.726 40.2982 624.697 41.2136C628.668 42.0273 633.862 43.2478 636.407 43.8581C638.953 44.3667 643.942 45.2821 647.608 45.7907C651.274 46.401 655.347 47.0112 656.772 47.2147C658.198 47.4181 660.438 48.0284 661.863 48.537C663.289 49.0455 668.278 50.4695 673.064 51.5884C677.85 52.8089 684.061 54.2329 686.811 54.7415C689.662 55.3517 694.855 56.4706 698.521 57.2843C702.186 57.9963 709.518 59.6237 714.813 60.8443C720.107 61.9631 727.235 63.3871 730.595 63.8957C733.956 64.4042 742.916 65.8282 750.451 66.9471C757.986 68.1676 764.605 68.8796 765.216 68.6762C765.827 68.4728 771.02 68.8796 776.926 69.6933C782.832 70.507 795.662 71.6259 805.437 72.2362C815.212 72.8464 830.588 73.0499 839.548 72.7447C848.509 72.4396 857.673 72.0327 859.913 71.8293C862.154 71.6259 866.736 70.7105 870.096 69.6933C873.456 68.6762 876.918 67.2522 877.733 66.4385C878.547 65.6248 879.667 65.3197 880.075 65.7265C880.584 66.2351 881.704 65.6248 882.62 64.4042C883.537 63.2854 886.592 60.5391 889.239 58.3014C892.396 55.7586 894.33 53.2158 894.738 51.2832C895.043 49.6558 895.247 45.9941 895.145 43.1461C895.043 38.7725 894.432 37.5519 891.479 34.5005C888.323 31.3474 887.101 30.9405 881.5 30.5337C876.816 30.2285 874.474 30.5337 872.438 31.7542C870.809 32.6697 868.976 35.0091 868.161 36.8399C867.347 38.569 864.903 41.6204 862.764 43.553C860.626 45.3838 857.062 47.7232 854.822 48.7404C852.582 49.6558 848.509 51.1815 845.658 52.0969C842.807 52.9106 832.319 54.2329 822.238 54.9449C809.917 55.7586 799.429 55.8603 790.163 55.25C782.628 54.8432 770.918 54.4363 764.198 54.3346C756.255 54.2329 749.84 53.6226 745.869 52.5038C742.509 51.5883 737.52 50.8764 734.668 50.9781C731.919 51.0798 726.828 50.3678 723.468 49.5541C720.107 48.6387 717.053 48.1301 716.645 48.3335C716.136 48.5369 712.267 47.825 707.99 46.8078C703.612 45.689 699.131 44.8753 698.011 44.8753C696.891 44.8753 694.142 44.265 691.902 43.6547C689.662 43.0444 686.709 42.3324 685.283 42.2307C683.858 42.129 682.025 41.7222 681.21 41.417C680.396 41.1119 677.545 40.3999 674.897 39.6879C672.148 39.0776 669.399 38.8742 668.788 39.1793C668.075 39.4845 664.104 38.7725 660.132 37.6536C656.059 36.4331 651.172 35.5176 649.441 35.5176C647.608 35.5176 644.248 34.8056 642.008 33.9919C639.767 33.1782 635.694 32.4662 632.843 32.3645C630.094 32.3645 624.799 31.6525 621.133 30.9405C617.468 30.2285 606.267 29.6183 596.186 29.5165V29.5165Z" fill="#70B3B2"/>
<path d="M483.873 0.121088C485.808 0.426228 488.455 1.7485 489.779 2.96906C491.001 4.29134 492.223 6.02046 492.325 6.83417C492.426 7.64788 493.547 9.78386 494.768 11.4113C495.99 13.1404 497.314 15.9884 497.823 17.9209C498.23 19.7518 499.249 21.786 499.961 22.498C500.878 23.3117 501.794 22.9049 503.729 20.8706C505.155 19.2432 506.071 17.5141 505.766 17.0055C505.46 16.4969 506.173 15.073 507.293 13.9541C508.413 12.8353 509.126 11.4113 508.82 10.9027C508.515 10.3941 508.82 9.88557 509.329 9.88557C509.839 9.88557 510.653 8.86844 510.959 7.64788C511.366 6.3256 512.486 4.18962 513.402 2.76563C514.93 0.731366 516.05 0.222799 519.817 0.222799C522.363 0.222799 524.807 0.629652 525.316 1.03651C525.723 1.54507 526.029 4.29133 525.927 7.13931C525.825 10.1907 524.909 13.5473 523.89 14.9712C522.974 16.3952 520.225 19.4466 517.781 21.8878C515.337 24.2272 513.402 26.4649 513.402 26.9734C513.402 27.3803 511.773 29.3128 509.839 31.2454C507.089 33.9916 506.58 35.2122 507.293 36.6362C507.904 37.5516 508.006 38.3653 507.497 38.3653C507.089 38.3653 507.802 39.3825 509.126 40.603C510.348 41.9253 511.06 43.2476 510.653 43.7561C510.144 44.163 510.857 45.4853 512.18 46.8075C514.013 48.6384 514.217 49.2487 513.199 50.2658C512.18 51.2829 511.468 51.1812 509.839 49.5538C508.718 48.3332 508.108 47.4178 508.515 47.5195C509.024 47.5195 508.718 46.9093 508.006 46.299C507.293 45.587 505.46 43.8578 501.183 39.891L497.823 43.451C495.99 45.3835 494.259 47.6212 493.954 48.435C493.75 49.2487 492.936 49.6555 492.223 49.2487C491.612 48.8418 491.001 47.6212 491.001 46.5024C491.001 45.3835 491.714 44.2647 492.528 43.9596C493.343 43.6544 494.056 42.6373 494.056 41.7219C493.954 40.7047 494.667 39.2807 495.583 38.6705C496.398 37.9585 497.009 36.4328 496.805 35.3139C496.703 34.0934 495.685 32.3642 494.565 31.3471C493.445 30.2282 490.899 27.8888 488.964 25.9563C487.03 24.0237 483.771 20.4638 481.837 18.1244C479.902 15.6832 478.273 13.3438 478.273 12.8353C478.273 12.4284 477.662 11.4113 476.949 10.6993C476.236 9.98728 475.625 7.95302 475.523 6.12218C475.523 3.78277 476.134 2.46049 477.865 1.23993C479.495 0.15499 481.497 -0.217957 483.873 0.121088V0.121088Z" fill="#BA80B6"/>
<path fill-rule="evenodd" clip-rule="evenodd" d="M998.945 290.986C999.536 291.766 1001.06 293.589 1002.29 295.082C1003.58 296.507 1005.03 298.277 1005.5 299.073C1005.96 299.749 1006.13 300.644 1005.82 301.051C1005.5 301.459 1005.94 302.443 1006.73 303.381C1007.59 304.371 1007.98 306.401 1007.69 308.457C1007.45 310.325 1007.56 312.146 1007.9 312.408C1008.24 312.67 1008.11 313.543 1007.53 314.291C1006.95 315.038 1006.58 315.943 1006.81 316.341C1006.98 316.686 1006.13 318.631 1005.04 320.607C1003.89 322.651 1000.99 326.268 998.657 328.588C996.323 330.907 993.995 332.798 993.497 332.74C993 332.681 991.894 333.13 990.94 333.803C990.106 334.462 989.037 334.722 988.697 334.46C988.357 334.197 987.65 334.411 987.23 334.955C986.81 335.498 985.726 335.638 984.82 335.265C983.914 334.892 982.987 334.828 982.673 335.236C982.358 335.644 980.76 335.605 979.184 335.257C977.54 334.857 974.137 333.644 971.677 332.615C967.783 330.914 966.694 330.076 963.228 325.995C961.063 323.46 959.222 321.066 959.228 320.637C959.234 320.208 958.958 319.02 958.577 317.968C958.144 316.984 957.429 315.241 956.875 314.272C956.306 313.183 956.208 311.482 956.671 310.322C957.066 309.108 957.188 307.685 956.885 307.235C956.566 306.664 956.788 305.535 957.417 304.719C958.099 303.836 958.62 302.178 958.653 301.012C958.692 299.416 959.695 297.696 963.026 294.085C965.382 291.457 967.626 289.393 968.087 289.64C968.532 289.766 969.276 289.364 969.748 288.753C970.273 288.074 971.783 286.961 973.287 286.278C974.671 285.61 977.464 284.944 979.407 284.816C981.403 284.62 983.189 284.696 983.461 284.906C983.733 285.115 984.712 285.111 985.676 284.987C986.693 284.795 988.624 285.525 989.917 286.521C991.209 287.517 993.496 288.629 995.072 288.977C996.648 289.324 998.302 290.274 998.945 290.986V290.986ZM987.513 290.196C986.764 289.619 983.727 289.338 980.767 289.658C976.346 290.044 974.774 290.675 971.004 293.73C966.783 297.088 966.378 297.752 963.862 303.399C962.458 306.762 961.438 309.768 961.658 310.046C961.825 310.392 962.831 313.443 963.712 316.939L965.379 323.21C974.285 329.098 977.169 330.561 977.62 330.259C977.95 329.971 978.621 329.946 979.029 330.26C979.437 330.575 981.464 330.62 983.565 330.288C985.734 330.008 989.008 329.28 990.889 328.671C993.651 327.764 995.371 326.38 998.618 322.597C1002.67 317.915 1002.86 317.523 1002.73 313.625C1002.67 311.307 1002.77 309.214 1002.98 308.942C1003.17 308.55 1003.17 307.572 1002.86 306.572C1002.61 305.625 1001.46 302.897 1000.24 300.547C998.972 297.835 996.996 295.336 995.092 293.869C993.391 292.558 991.292 291.483 990.486 291.403C989.679 291.324 988.329 290.825 987.513 290.196V290.196Z" fill="#AFB4D9"/>
<path d="M986.469 294.919C986.998 295.218 986.76 296.227 985.868 297.382C984.961 298.417 983.231 299.251 981.288 299.38C978.501 299.616 977.652 300.154 973.444 305.04C969.447 309.654 968.545 310.26 967.593 309.526C966.845 308.95 966.747 307.249 967.222 305.23C967.711 303.332 968.946 301.031 970.042 300.034C971.07 298.983 973.722 297.234 976.008 295.961C978.346 294.62 981.243 293.818 982.856 293.977C984.349 294.152 985.993 294.552 986.469 294.919V294.919ZM992.925 296.534C993.129 296.691 993.479 297.503 993.587 298.345C993.696 299.188 993.302 300.401 992.777 301.08C992.305 301.692 991.304 302.004 990.602 301.789C989.901 301.573 989.153 300.997 988.902 300.478C988.719 300.013 988.993 298.815 989.555 297.947C990.169 297.011 991.108 296.217 991.605 296.276C992.155 296.266 992.721 296.377 992.925 296.534V296.534Z" fill="#AFB4D9"/>
<path fill-rule="evenodd" clip-rule="evenodd" d="M954.867 55.7926C955.276 55.2423 956.206 53.8615 956.97 52.739C957.678 51.5944 958.585 50.2697 959.029 49.7973C959.395 49.3591 959.964 49.0646 960.3 49.1963C960.636 49.328 961.215 48.8435 961.69 48.1251C962.188 47.3507 963.481 46.6936 964.922 46.4824C966.229 46.2832 967.434 45.8501 967.544 45.5701C967.654 45.29 968.268 45.2075 968.885 45.4489C969.502 45.6903 970.185 45.7636 970.407 45.5275C970.607 45.3473 972.085 45.538 973.63 45.8846C975.232 46.2531 978.239 47.4942 980.26 48.6083C982.281 49.7224 984.011 50.9167 984.07 51.2627C984.128 51.6086 984.647 52.264 985.288 52.7734C985.895 53.2048 986.28 53.8724 986.171 54.1525C986.061 54.4325 986.343 54.8662 986.792 55.0418C987.241 55.2174 987.548 55.9191 987.474 56.6011C987.401 57.2831 987.539 57.9189 987.876 58.0506C988.212 58.1822 988.5 59.2639 988.575 60.3917C988.628 61.5755 988.478 64.1015 988.267 65.9575C987.886 68.9096 987.534 69.8058 985.465 72.9374C984.181 74.8903 982.93 76.5973 982.639 76.6776C982.349 76.7578 981.603 77.1765 980.969 77.639C980.39 78.1235 979.356 78.9463 978.812 79.5087C978.19 80.1052 977.063 80.5042 976.19 80.421C975.295 80.3938 974.313 80.5907 974.069 80.8829C973.747 81.2092 972.942 81.2819 972.269 81.0185C971.54 80.7332 970.321 80.7083 969.528 80.915C968.445 81.202 967.089 80.8652 964.003 79.3342C961.77 78.2663 959.939 77.162 960.015 76.804C960.012 76.48 959.596 76.0584 959.091 75.8609C958.53 75.6414 957.484 74.8445 956.729 73.9672C956.007 73.1679 955.011 71.421 954.543 70.1396C954.019 68.8362 953.72 67.6205 953.808 67.3964C953.896 67.1724 953.701 66.5146 953.428 65.8909C953.099 65.2453 953.212 63.8033 953.63 62.7391C954.047 61.6748 954.348 59.9187 954.273 58.7908C954.198 57.663 954.513 56.3648 954.867 55.7926V55.7926ZM956.577 63.6343C956.336 64.2505 956.742 66.3479 957.538 68.275C958.666 71.1717 959.4 72.105 962.198 74.0403C965.289 76.2193 965.816 76.3608 970.115 76.9449C972.656 77.2285 974.882 77.3245 975.026 77.1224C975.226 76.9423 977.085 75.6667 979.268 74.3888L983.166 72.0375C985.385 64.8942 985.806 62.668 985.513 62.4243C985.255 62.2585 985.106 61.8127 985.238 61.4766C985.37 61.1406 985.002 59.769 984.367 58.4217C983.753 57.0184 982.62 54.9596 981.84 53.8144C980.687 52.1356 979.417 51.2509 976.231 49.8099C972.281 48.0056 971.979 47.9519 969.379 48.8081C967.828 49.2995 966.399 49.6447 966.174 49.5569C965.872 49.5032 965.213 49.6978 964.601 50.1043C964.011 50.4548 962.398 51.7621 961.054 53.0452C959.476 54.4305 958.18 56.2495 957.565 57.818C957.016 59.2183 956.703 60.8405 956.808 61.3983C956.912 61.9562 956.841 62.9621 956.577 63.6343V63.6343Z" fill="#AFB4D9"/>
<path d="M959.964 63.4091C960.062 62.995 960.789 62.9564 961.742 63.3295C962.617 63.7367 963.519 64.7358 963.987 66.0172C964.693 67.8444 965.222 68.3099 969.34 70.18C973.234 71.9623 973.819 72.4497 973.511 73.2339C973.269 73.8501 972.142 74.2491 970.689 74.3264C969.314 74.3696 967.522 73.9913 966.634 73.4501C965.725 72.965 964.026 71.5247 962.719 70.238C961.357 68.9293 960.248 67.1385 960.039 66.0228C959.864 64.985 959.811 63.8012 959.964 63.4091V63.4091ZM959.786 58.7517C959.852 58.5836 960.33 58.1892 960.876 57.9507C961.423 57.7123 962.318 57.7395 962.878 57.959C963.383 58.1565 963.79 58.7681 963.783 59.282C963.775 59.796 963.533 60.4121 963.233 60.6824C962.955 60.8966 962.094 60.9474 961.399 60.74C960.648 60.5107 959.929 60.0354 959.871 59.6895C959.757 59.3216 959.72 58.9197 959.786 58.7517V58.7517Z" fill="#AFB4D9"/>
<path d="M389.449 633.897C396.475 634.202 402.686 634.914 403.195 635.525C403.704 636.033 404.926 636.44 405.741 636.44C406.555 636.44 408.49 636.949 410.017 637.661C411.647 638.373 412.869 639.288 412.869 639.593C412.869 640 416.025 640.814 419.793 641.526C423.764 642.339 429.262 642.543 432.928 642.136C436.492 641.831 440.361 640.915 441.685 640.102C442.907 639.288 447.387 637.559 451.562 636.135C457.977 634.101 460.93 633.694 469.891 633.897C477.324 634.101 481.601 634.609 483.943 635.83C485.674 636.745 488.016 637.457 489.034 637.457C489.95 637.457 491.274 637.864 491.783 638.373C492.292 638.881 495.143 640 497.893 640.915C500.744 641.831 505.326 642.543 508.075 642.645C510.926 642.645 515.916 641.933 519.276 641.119C522.636 640.203 526.098 638.881 526.913 638.067C527.727 637.355 530.477 636.135 533.022 635.423C535.772 634.508 541.881 633.999 548.296 633.999C558.071 634.101 559.802 634.406 568.152 637.661C573.243 639.593 578.742 641.526 580.371 641.933C582 642.238 584.546 642.746 585.971 643.051C587.397 643.255 590.553 643.051 593.099 642.441C595.645 641.831 600.227 640.407 603.282 639.288C606.336 638.169 610.308 636.644 611.937 635.932C613.566 635.118 619.574 634.202 625.174 633.796C633.626 633.287 636.477 633.49 641.772 635.016C645.234 636.135 648.085 637.254 648.085 637.661C648.085 638.169 649.001 638.474 650.121 638.474C651.241 638.474 652.361 639.186 652.667 640C652.972 640.814 653.176 642.543 653.176 643.865C653.074 645.086 652.361 646.611 651.343 647.323C650.427 648.035 648.696 648.646 647.576 648.646C646.456 648.646 644.317 647.832 642.688 646.611C641.161 645.493 639.328 644.781 638.615 644.984C638.004 645.187 635.051 644.984 632.302 644.475C628.84 643.763 625.072 643.865 620.592 644.679C616.926 645.391 612.548 646.713 610.919 647.73C609.289 648.747 604.402 650.273 600.227 651.087C596.052 652.002 589.128 652.714 584.953 652.714C580.167 652.612 575.382 652.002 572.225 650.782C569.374 649.764 564.384 647.934 561.024 646.611C556.748 644.984 552.675 644.374 547.278 644.374C541.27 644.374 538.215 644.984 533.022 647.12C529.357 648.646 524.571 650.375 522.331 650.985C520.09 651.595 513.472 652.002 507.566 652.002C501.66 652.002 495.041 651.595 492.801 650.985C490.561 650.476 486.183 648.747 483.128 647.12C478.24 644.679 476.306 644.272 468.363 644.17C461.643 644.17 457.977 644.679 454.617 646.001C452.071 647.018 449.118 648.239 447.998 648.747C446.878 649.256 443.212 650.273 439.852 651.087C436.492 652.002 429.975 652.714 425.291 652.714C420.709 652.714 416.738 652.206 416.432 651.697C416.127 651.188 414.803 650.68 413.378 650.68C411.952 650.68 408.185 649.358 404.926 647.832C401.77 646.205 396.577 644.679 393.522 644.272C390.263 643.865 384.968 644.17 380.794 644.984C376.822 645.696 372.546 646.916 371.12 647.628C369.695 648.239 367.556 648.544 366.233 648.239C365.011 647.934 363.483 646.713 362.974 645.594C362.261 644.17 362.363 642.848 363.178 641.017C363.891 639.593 365.214 638.271 366.029 637.966C366.844 637.762 369.593 636.542 372.138 635.423C376.211 633.592 378.044 633.389 389.449 633.897V633.897Z" fill="#6D7AC4"/>
<path d="M390.467 608.265C400.344 608.672 403.195 609.181 408.286 611.52C411.647 612.944 415.516 614.775 416.84 615.385C418.164 616.097 423.255 616.606 428.041 616.606C434.863 616.504 437.816 616.097 441.583 614.266C444.333 613.046 447.489 611.825 448.711 611.622C450.035 611.418 452.886 610.503 455.126 609.588C457.672 608.571 462.05 607.96 466.632 607.96C470.603 607.96 476.102 608.469 478.75 609.079C481.499 609.689 484.452 610.605 485.368 611.113C486.386 611.622 487.812 612.029 488.423 612.029C489.136 612.029 491.579 612.944 493.82 614.165C496.874 615.792 499.929 616.301 506.039 616.402C510.519 616.504 515.305 616.301 516.73 616.097C518.156 615.894 519.48 615.385 519.785 615.08C520.091 614.775 523.756 613.148 527.931 611.52C534.346 608.977 537.299 608.469 546.769 608.164C553.896 607.96 558.377 608.265 558.988 608.977C559.497 609.486 560.922 609.995 562.042 609.995C563.163 609.995 565.505 610.707 567.134 611.52C568.763 612.436 570.799 613.046 571.41 613.046C572.123 613.046 573.345 613.656 573.956 614.47C574.669 615.182 576.4 615.894 577.825 615.894C579.251 615.894 582.204 616.199 584.444 616.606C587.193 617.114 590.961 616.809 596.154 615.589C600.329 614.572 606.031 612.639 608.882 611.215C612.955 609.181 616.112 608.571 625.276 608.062C633.727 607.655 636.986 607.757 638.004 608.774C638.819 609.384 640.142 609.791 640.957 609.486C641.772 609.283 644.521 610.096 647.066 611.419C649.612 612.741 651.75 614.572 651.954 615.69C652.158 616.708 652.056 618.742 651.649 620.166C651.038 622.505 650.63 622.709 646.761 622.098C644.419 621.793 640.855 620.776 638.92 619.861C636.986 619.047 633.015 618.03 630.265 617.623C626.396 617.216 623.545 617.521 618.555 619.25C614.89 620.471 610.104 622.302 607.864 623.319C605.624 624.234 599.921 625.557 595.136 626.167C589.637 626.879 584.139 626.879 579.862 626.269C576.196 625.76 571.614 624.743 569.578 624.031C567.541 623.319 565.403 622.403 564.995 621.895C564.486 621.488 563.061 621.183 561.737 621.183C560.515 621.183 559.293 620.878 559.09 620.471C558.886 619.962 556.035 619.047 552.776 618.335C547.583 617.114 545.954 617.216 540.15 618.64C536.484 619.556 530.782 621.691 527.422 623.319C523.247 625.353 519.072 626.472 514.185 626.879C510.213 627.184 503.493 626.981 499.115 626.37C494.838 625.76 489.645 624.336 487.71 623.217C485.775 622.098 483.332 621.183 482.313 621.183C481.397 621.183 479.666 620.573 478.546 619.759C477.324 618.843 473.455 618.233 468.872 618.03C464.596 617.928 460.217 618.335 458.894 618.945C457.672 619.657 455.432 620.267 454.006 620.471C452.58 620.573 450.849 621.285 450.238 621.997C449.526 622.709 448.304 623.319 447.387 623.217C446.573 623.217 445.453 623.624 444.842 624.234C444.333 624.743 440.26 625.658 435.779 626.269C429.975 627.082 425.495 627.082 420.2 626.37C416.229 625.76 409.508 623.929 405.435 622.302C401.464 620.674 396.475 618.945 394.54 618.538C392.605 618.132 388.634 617.826 385.885 617.928C383.034 618.03 379.164 618.843 377.23 619.759C375.295 620.674 371.528 621.691 368.982 622.098C364.604 622.709 364.196 622.505 363.483 620.166C363.076 618.742 363.076 616.708 363.28 615.589C363.585 614.47 365.622 612.741 367.76 611.825C369.898 610.808 372.546 609.995 373.666 609.995C374.786 609.995 376.415 609.486 377.23 608.876C378.146 608.265 383.136 607.96 390.467 608.265V608.265Z" fill="#6D7AC4"/>
<path d="M406.449 590.5L375.949 535M375.949 535L464.949 522M375.949 535L444.449 552.335M464.949 522L498.449 473M464.949 522L444.449 552.335M498.449 473L540.949 522M498.449 473L500.949 565M540.949 522L624.449 535M540.949 522L561.449 550.5M624.449 535L592.449 590.5M624.449 535L561.449 550.5M500.949 565L444.449 552.335M500.949 565L561.449 550.5" stroke="#E89156" stroke-width="12" stroke-linecap="round" stroke-linejoin="round"/>
<path fill-rule="evenodd" clip-rule="evenodd" d="M175.545 89.5115C177.324 91.5618 178.532 93.4879 179.117 95.067C179.609 96.4561 179.925 98.9921 179.808 100.689C179.651 102.42 179.659 103.946 179.79 104.104C179.954 104.3 179.81 105.087 179.45 105.854C179.122 106.66 178.565 107.591 178.211 107.886C177.889 108.22 177.529 108.987 177.398 109.629C177.215 110.448 176.277 111.563 174.192 113.301C172.106 115.038 170.604 115.956 169.233 116.232C168.19 116.501 167.108 116.803 166.872 117C166.675 117.164 164.91 117.368 162.975 117.447C161.04 117.527 159.413 117.416 159.432 117.2C159.38 116.977 158.783 116.742 158.1 116.644C157.385 116.506 155.463 115.642 153.809 114.621C151.538 113.18 150.429 112.171 149.116 110.199C148.151 108.804 147.389 107.173 147.481 106.563C147.533 105.986 147.283 105.128 146.922 104.696C146.561 104.263 146.39 102.14 146.474 100.004C146.598 97.8345 147.147 94.977 147.704 93.6464C148.569 91.7259 149.428 90.677 152.425 88.1133C155.468 85.4447 156.354 84.9069 157.705 84.8473C158.584 84.7813 159.476 84.5712 159.673 84.4073C159.909 84.2106 161.811 84.0917 163.95 84.1759C166.056 84.2208 168.28 84.5671 168.832 84.9076C169.383 85.2481 170.013 85.5231 170.229 85.5426C170.446 85.5622 171.154 85.7716 171.791 85.9744C172.388 86.2101 174.101 87.7821 175.545 89.5115V89.5115ZM168.99 87.9745C168.728 87.6601 166.805 87.1957 164.791 86.941C161.944 86.6474 160.402 86.7989 158.1 87.7174C156.44 88.367 154.492 89.3902 153.824 89.9475C153.115 90.5377 152.204 91.7636 151.837 92.6025C151.503 93.4808 150.913 94.3724 150.677 94.5691C150.401 94.7986 150.048 96.2929 149.904 97.8789C149.76 99.4648 149.486 100.894 149.249 101.09C149.053 101.254 149.151 101.772 149.512 102.204C149.873 102.637 150.13 103.423 150.123 103.895C150.078 104.399 150.131 105.422 150.288 106.09C150.407 106.791 151.385 108.442 152.468 109.739C153.551 111.036 154.995 112.366 155.651 112.752C156.347 113.106 158.079 113.662 159.542 113.976C160.966 114.322 162.541 114.61 162.934 114.682C163.367 114.721 164.102 114.642 164.627 114.472C165.112 114.334 165.657 114.347 165.854 114.582C166.051 114.818 166.385 114.739 166.628 114.471C166.864 114.274 167.408 113.887 167.822 113.743C168.235 113.598 169.409 113.087 170.465 112.673C171.941 112.043 172.577 111.447 173.809 109.487C174.616 108.215 175.527 106.989 175.757 106.865C176.026 106.707 176.183 106.176 176.091 105.586C175.998 104.997 176.293 103.751 176.699 102.88C177.145 101.975 177.328 100.356 177.17 99.2882C177.006 98.2922 176.605 97.0931 176.277 96.7001C175.981 96.3464 175.568 95.2915 175.324 94.361C175.121 93.3978 174.274 91.904 173.453 90.9214C172.632 89.9388 171.405 89.0284 170.729 88.8584C170.014 88.7211 169.253 88.2889 168.99 87.9745Z" fill="#AFB4D9"/>
<path d="M166.893 91.0554C166.991 91.1733 167.057 91.6517 167.011 92.1563C166.966 92.6609 166.657 93.2509 166.421 93.4476C166.146 93.6771 164.978 93.7169 163.863 93.5798C162.498 93.3839 161.573 93.5547 161.272 94.0726C160.937 94.5511 160.563 94.6627 160.301 94.3482C160.005 93.9945 159.382 94.447 157.697 96.1844C156.451 97.4891 154.989 98.7742 154.412 99.1218C153.841 99.3973 153.185 99.4107 152.955 99.1356C152.758 98.8997 152.817 97.8512 153.197 96.868C153.643 95.5637 154.626 94.3443 156.279 92.9674C157.584 91.8134 158.869 90.8757 159.125 90.8624C159.453 90.8557 160.785 90.6126 162.083 90.3302C163.454 90.0544 165.016 90.0864 165.646 90.3613C166.236 90.6691 166.755 90.9703 166.893 91.0554Z" fill="#AFB4D9"/>
</svg>
