<svg width="752" height="328" viewBox="0 0 752 328" fill="none" xmlns="http://www.w3.org/2000/svg">
<path d="M682.738 218.348C683.552 218.348 687.422 219.263 691.393 220.382C697.095 222.111 699.335 223.332 702.39 226.79C704.63 229.129 707.074 232.689 707.888 234.622C708.907 237.165 709.314 240.928 709.008 248.048C708.703 256.897 708.499 258.118 706.157 260.457C704.223 262.39 703.204 262.797 701.779 262.085C700.862 261.474 700.048 260.05 700.048 258.83C700.048 257.507 700.761 255.066 701.575 253.439C702.492 251.812 703.103 248.353 703.103 245.81C703.103 242.352 702.492 240.521 700.557 238.487C699.131 236.86 696.993 235.334 695.669 235.029C694.447 234.724 691.495 234.724 689.051 235.029C686.2 235.436 684.672 236.249 684.367 237.47C684.061 238.385 683.552 240.826 683.247 242.759C682.738 245.404 683.145 247.641 685.181 251.913C686.811 255.473 691.291 261.169 697.4 267.679C702.695 273.273 707.787 278.664 708.601 279.681C709.518 280.596 711.35 283.851 712.776 286.801C714.711 290.768 715.322 293.717 715.322 299.007C715.322 303.584 714.711 307.042 713.387 309.686C712.369 311.721 709.11 315.586 706.056 318.332C703.001 320.977 699.844 323.113 699.03 323.113C698.215 323.113 696.077 323.723 694.447 324.638C692.513 325.655 688.542 326.164 683.247 326.164C677.85 326.164 674.082 325.655 672.046 324.537C670.417 323.723 668.177 322.909 667.158 322.807C666.242 322.706 665.02 322.096 664.613 321.485C664.205 320.875 662.983 320.061 661.863 319.654C660.743 319.349 658.605 317.112 657.078 314.772C655.55 312.331 654.023 308.161 653.717 305.313C653.242 301.922 653.548 298.193 654.634 294.124C655.55 290.768 657.179 287.106 658.3 285.987C660.031 284.258 660.642 284.156 662.882 285.275C664.307 285.987 665.427 287.411 665.427 288.53C665.427 289.649 664.307 292.293 662.882 294.429C661.456 296.464 660.336 299.617 660.336 301.549C660.336 303.99 661.049 305.313 663.085 306.737C664.715 307.754 667.769 309.178 670.009 309.686C672.962 310.5 675.508 310.5 679.174 309.686C682.636 308.873 685.283 307.449 687.523 305.109C690.171 302.465 690.884 300.939 690.884 297.684C690.884 294.735 690.171 292.802 688.032 290.361C686.505 288.632 681.618 283.444 677.035 278.969C672.555 274.392 666.955 267.984 664.715 264.627C662.373 261.271 659.827 256.185 659.012 253.439C658.096 250.489 657.587 246.116 657.892 242.962C658.096 239.809 659.521 235.232 661.354 231.571C662.983 228.214 665.427 224.756 666.751 223.942C667.973 223.128 671.74 221.501 675.101 220.484C678.461 219.365 681.923 218.449 682.738 218.348V218.348Z" fill="#6D7AC4"/>
<path d="M150.701 218.45C152.33 218.45 155.793 218.958 158.338 219.67C160.884 220.382 164.549 221.908 166.484 223.027C168.419 224.247 171.575 227.4 173.408 230.147C175.241 232.893 176.972 236.758 177.379 238.691C177.685 240.623 177.787 245.709 177.481 249.879C177.176 254.558 176.361 258.626 175.343 260.254C174.427 261.881 173.001 263.102 172.39 263.102C171.677 263.203 170.455 262.491 169.844 261.576C168.724 260.355 168.826 259.135 170.048 255.168C170.863 252.524 171.575 248.455 171.575 246.014C171.575 242.759 170.863 240.928 168.521 238.182C165.771 235.029 164.957 234.622 160.375 234.622C156.403 234.622 154.876 235.131 153.247 236.86C152.025 238.385 151.312 240.725 151.21 243.268C151.21 245.505 151.72 248.964 152.33 250.896C152.941 253.134 156.811 258.016 162.717 264.221C167.91 269.611 173.001 275.307 174.121 276.731C175.241 278.257 176.667 279.986 177.176 280.698C177.787 281.308 179.416 283.851 181.045 286.191C183.489 290.056 183.794 291.48 183.693 298.396C183.591 303.482 182.98 307.245 181.962 308.873C181.147 310.297 179.212 313.145 177.787 315.281C176.361 317.417 174.223 319.451 173.103 319.756C171.983 320.061 170.354 320.875 169.539 321.689C168.724 322.401 167.095 323.214 165.975 323.418C164.855 323.723 162.818 324.435 161.393 325.147C159.662 325.961 155.894 326.266 150.09 326.062C145.305 325.859 140.621 325.045 139.704 324.333C138.686 323.723 137.668 323.316 137.159 323.621C136.751 323.825 134.613 322.807 132.373 321.18C130.133 319.654 126.772 316.094 124.94 313.348C121.987 308.975 121.681 307.551 121.681 301.448C121.681 297.176 122.394 293.107 123.514 290.564C124.43 288.327 126.161 285.987 127.281 285.377C128.809 284.563 129.929 284.563 131.66 285.377C133.153 286.123 133.798 287.242 133.595 288.734C133.493 290.056 132.067 293.107 130.54 295.65C128.198 299.617 127.892 300.736 128.809 303.482C129.42 305.313 130.54 306.839 131.354 306.839C132.169 306.839 133.086 307.551 133.391 308.364C133.696 309.178 134.715 309.788 135.733 309.686C136.649 309.585 139.297 309.89 141.537 310.297C144.694 310.805 146.832 310.5 151.109 308.669C154.672 307.144 157.014 305.415 157.931 303.482C158.745 301.956 159.356 299.312 159.356 297.684C159.356 295.65 157.863 292.666 154.876 288.734C152.432 285.58 149.378 282.224 148.054 281.308C146.73 280.393 144.897 278.969 144.083 278.155C143.268 277.342 140.213 273.985 137.464 270.832C134.613 267.577 132.373 264.627 132.373 264.322C132.373 263.915 131.558 262.491 130.642 261.067C129.827 259.643 128.198 255.982 127.281 252.93C126.06 249.065 125.652 245.912 126.161 242.759C126.467 240.216 127.485 236.046 128.3 233.3C129.522 229.435 130.947 227.705 135.326 224.451C138.279 222.213 141.639 220.382 142.657 220.382C143.777 220.382 145.305 219.874 146.119 219.365C146.934 218.856 149.072 218.348 150.701 218.45V218.45Z" fill="#6D7AC4"/>
<path fill-rule="evenodd" clip-rule="evenodd" d="M334.496 218.043C337.041 218.348 340.605 218.958 342.438 219.467C344.474 220.077 346.206 221.501 347.122 223.23C347.835 224.756 348.751 227.197 349.158 228.824C349.464 230.35 350.788 232.588 352.111 233.91C353.435 235.131 355.472 238.894 356.693 242.25C357.915 245.607 359.341 252.015 360.054 256.49C360.665 261.067 360.868 267.984 360.461 272.256C360.156 276.426 358.934 284.462 357.712 290.056C356.592 295.65 355.268 300.329 354.759 300.532C354.25 300.634 353.842 301.549 353.842 302.566C353.842 303.482 353.028 305.923 351.908 307.856C350.889 309.788 348.344 313.145 346.307 315.281C344.271 317.315 341.42 319.654 339.892 320.468C338.263 321.18 335.208 322.197 332.968 322.604C330.524 323.011 327.062 322.706 324.313 321.994C321.767 321.18 317.898 319.451 315.658 317.925C313.418 316.4 310.567 313.755 309.243 312.026C308.021 310.297 307.003 308.568 307.003 308.161C307.003 307.652 306.29 306.635 305.577 305.821C304.763 305.008 302.726 299.007 300.893 292.599C297.94 281.919 297.737 279.884 298.144 269.205C298.348 262.797 299.06 255.27 299.773 252.422C300.384 249.676 301.912 244.488 303.235 240.928C304.457 237.47 305.781 234.622 306.29 234.622C306.697 234.622 307.003 234.215 307.003 233.605C307.003 233.096 308.021 231.062 309.345 229.129C310.567 227.197 313.825 224.145 316.574 222.213C319.324 220.382 323.499 218.551 325.739 218.246C328.081 217.941 331.95 217.839 334.496 218.043V218.043ZM325.942 249.37C324.517 253.541 324.313 257.507 324.619 271.747C324.924 287.411 325.229 289.547 327.47 294.633C328.793 297.684 330.219 300.329 330.728 300.532C331.135 300.634 331.441 301.448 331.441 302.261C331.441 303.075 332.154 304.499 332.968 305.313C333.783 306.126 336.023 306.838 337.856 306.838C340.503 306.94 341.725 306.126 344.169 303.075C345.798 300.939 348.344 295.752 349.668 291.581C352.01 284.767 352.213 282.427 352.111 269.205C352.111 260.559 351.5 252.218 350.686 248.964C349.769 245.404 348.344 242.759 346.715 241.538C345.187 240.318 341.827 239.402 337.958 238.996C332.052 238.487 331.746 238.589 329.71 241.335C328.59 242.962 326.859 246.624 325.942 249.37Z" fill="#6D7AC4"/>
<path fill-rule="evenodd" clip-rule="evenodd" d="M595.677 217.229C597.917 217.433 602.194 219.162 605.147 221.094C607.998 222.925 610.442 225.163 610.442 225.976C610.442 226.79 610.951 227.502 611.46 227.502C611.969 227.502 613.599 230.045 615.024 233.096C616.45 236.148 617.57 239.504 617.57 240.521C617.57 241.437 617.977 242.759 618.588 243.268C619.199 243.878 619.81 246.319 620.115 248.862C620.319 251.405 620.93 256.389 621.541 260.05C622.05 263.712 622.763 272.154 623.068 278.867C623.374 285.58 623.883 296.159 624.29 302.261C624.901 311.721 624.799 314.06 623.374 317.315C622.457 319.349 620.625 321.79 619.301 322.604C618.079 323.418 615.33 324.13 613.191 324.13C611.155 324.13 608.405 323.621 607.082 323.011C605.86 322.299 604.434 321.078 603.823 320.163C603.314 319.248 602.805 318.332 602.805 318.027C602.805 317.722 602.194 316.603 601.583 315.484C600.972 314.365 600.158 310.297 599.852 306.33C599.547 302.363 599.038 296.362 598.223 286.496H588.244C582.847 286.598 575.821 286.089 572.767 285.479C569.712 284.97 565.944 284.258 564.315 283.953C561.668 283.444 561.566 283.648 560.548 288.835C560.039 291.683 559.326 299.21 558.918 305.313C558.511 311.416 557.9 317.518 557.391 318.841C556.882 320.061 555.558 321.078 554.438 321.078C553.318 321.078 551.893 320.163 551.383 319.044C550.772 317.925 550.671 313.958 550.976 310.195C551.282 306.33 551.791 301.855 552.096 300.227C552.3 298.6 552.809 294.633 553.114 291.582C553.725 286.089 553.624 285.987 550.467 284.767C548.736 284.055 546.801 282.529 546.292 281.41C545.783 280.291 545.478 278.359 545.783 277.138C546.088 275.714 548.125 273.883 551.078 272.256C555.253 270.018 555.966 269.103 557.289 264.627C558.002 261.881 559.02 257.711 559.428 255.473C559.835 253.236 560.649 250.489 561.26 249.37C561.973 248.252 563.399 245.099 564.621 242.251C565.843 239.504 567.777 235.232 568.999 232.791C570.221 230.35 571.952 227.604 572.767 226.688C573.683 225.773 576.127 223.637 578.367 221.908C580.607 220.28 582.847 218.551 583.357 218.144C583.866 217.839 585.902 217.331 587.939 217.127C589.975 216.822 593.437 216.924 595.677 217.229V217.229ZM576.229 236.351C575.516 237.368 573.785 240.521 572.461 243.268C571.137 246.116 569.203 251.1 568.185 254.456C567.268 257.813 566.25 262.288 566.046 264.424L565.639 268.187C576.331 268.187 582.746 268.899 586.819 269.713C590.79 270.527 594.863 270.934 595.779 270.527C597.001 269.917 597.205 269.001 596.696 266.662C596.288 265.034 595.881 261.068 595.677 258.016C595.474 254.965 594.048 248.557 592.521 243.776C590.993 238.996 589.262 234.52 588.651 233.808C588.04 233.096 586.615 232.588 585.495 232.588C584.375 232.69 582.135 233.198 580.505 233.605C578.978 234.113 577.043 235.334 576.229 236.351V236.351Z" fill="#6D7AC4"/>
<path d="M251.508 217.026C259.349 217.331 267.393 218.043 269.328 218.653C271.262 219.162 273.4 220.179 274.011 220.789C274.622 221.399 275.132 223.942 275.132 226.485C275.132 230.452 274.724 231.367 271.975 233.401C269.124 235.537 268.106 235.741 254.563 234.52L253.748 241.945C253.341 246.014 253.035 264.017 253.137 281.919C253.341 312.128 253.239 314.772 251.406 318.434C250.388 320.57 248.962 322.807 248.453 323.214C247.944 323.723 244.584 324.231 241.224 324.435C236.54 324.537 234.401 324.231 233.078 322.909C231.958 321.994 230.532 319.044 229.819 316.298C228.903 312.84 228.496 300.024 228.292 272.764C228.19 248.353 227.681 233.91 227.07 233.401C226.561 233.096 222.59 232.995 218.415 233.3C214.036 233.605 209.862 233.503 208.742 232.893C207.621 232.283 206.4 230.655 205.992 229.129C205.483 227.705 205.585 225.366 206.196 223.942C206.807 222.416 208.742 220.789 211.083 219.874C213.12 219.06 219.942 217.941 226.052 217.432C232.161 217.026 243.668 216.822 251.508 217.026V217.026Z" fill="#6D7AC4"/>
<path d="M53.2545 217.127C54.7818 217.331 56.9202 217.839 58.0403 218.348C59.1603 218.856 66.6954 219.467 74.8414 219.67C82.9874 219.873 90.4207 220.484 91.4389 220.992C92.4572 221.501 93.6791 223.332 94.1882 224.959C94.7991 226.892 94.7991 228.417 94.1882 229.028C93.6791 229.638 93.3736 230.248 93.6791 230.553C93.9845 230.858 93.2718 231.977 92.0499 233.096C90.5225 234.622 88.486 235.13 84.6166 235.13C81.7655 235.13 76.0633 235.232 64.6589 235.639L63.1315 239.402C62.0114 242.047 61.6041 246.726 61.6041 254.151C61.6041 261.881 62.0115 265.339 62.8261 265.848C63.5388 266.255 66.6954 266.458 69.7502 266.255C72.8049 266.153 77.5907 266.662 80.34 267.374C83.0892 268.086 85.4312 269.001 85.6349 269.408C85.8385 269.916 86.144 272.256 86.2458 274.697C86.5513 278.46 86.144 279.579 84.0057 281.41C81.7655 283.241 80.1363 283.546 61.6041 283.444L62.1133 311.416L67.7137 311.212C70.7684 311.212 76.9797 310.907 81.5619 310.704C88.2823 310.5 90.0134 310.704 91.4389 312.128C92.3553 313.145 93.1699 315.179 93.1699 316.705C93.2718 318.332 92.4572 320.57 91.4389 321.689C90.4207 322.909 87.2641 324.435 84.5148 325.147C81.6637 325.859 73.0086 326.673 65.168 326.876C56.2074 327.181 49.2833 326.978 46.534 326.266C42.9702 325.35 41.9519 324.435 40.119 320.773C38.5917 317.722 37.7771 313.653 37.2679 306.33C36.9625 300.736 36.657 288.835 36.657 279.884C36.657 270.934 36.9625 256.999 37.3698 248.862C37.7771 240.725 38.5917 231.57 39.3044 228.519C40.119 225.162 41.6464 221.908 43.1738 220.28C44.5993 218.755 46.8395 217.331 48.1632 217.127C49.4869 216.924 51.7271 216.924 53.2545 217.127V217.127Z" fill="#6D7AC4"/>
<path fill-rule="evenodd" clip-rule="evenodd" d="M402.719 213.364C403.024 213.364 404.857 213.872 406.893 214.584C408.93 215.195 411.475 216.517 412.494 217.432C413.614 218.449 414.836 221.196 415.243 223.535C415.752 225.976 416.261 228.316 416.567 228.722C416.77 229.231 419.316 228.417 422.065 226.993C426.037 224.959 428.684 224.45 434.284 224.45C438.866 224.45 442.736 225.061 445.281 226.18C447.318 227.197 450.475 229.333 452.104 231.062C453.733 232.893 455.769 235.842 456.584 237.775C457.297 239.708 458.417 242.352 459.13 243.674C459.741 245.098 460.25 250.896 460.25 257.406C460.148 265.339 459.639 270.222 458.417 273.782C457.5 276.528 454.955 281.105 452.817 283.851C450.78 286.597 447.216 289.852 444.976 290.971C441.921 292.599 439.07 293.107 433.47 293.107C428.277 293.107 426.138 293.514 426.138 294.328C426.138 295.04 428.582 297.989 431.535 300.736C434.386 303.584 437.135 305.821 437.543 305.821C438.052 305.821 439.783 306.737 441.412 307.856C443.041 308.974 444.467 309.686 444.467 309.381C444.467 309.076 445.892 309.585 447.522 310.398C449.151 311.212 450.882 311.924 451.289 311.822C451.798 311.822 452.409 312.331 452.817 313.145C453.224 313.857 453.631 315.789 453.631 317.518C453.631 319.349 452.817 321.383 451.595 322.604C449.965 324.13 448.744 324.435 446.503 323.825C444.772 323.418 440.598 321.18 437.034 318.841C433.572 316.501 430.619 314.162 430.415 313.755C430.313 313.246 428.582 311.416 426.647 309.585C424.713 307.856 421.76 303.787 420.131 300.736C417.381 295.65 417.076 295.345 416.567 297.684C416.363 299.108 415.854 304.194 415.548 309.076C415.141 314.976 414.327 318.942 413.207 320.773C412.188 322.401 410.966 323.926 410.355 324.333C409.846 324.74 407.81 325.147 405.977 325.147C404.246 325.147 401.395 324.333 399.664 323.316C398.035 322.401 396.202 320.57 395.591 319.247C395.082 318.027 393.962 315.789 393.249 314.263C392.332 312.229 392.027 300.634 392.129 266.255C392.231 223.738 392.332 220.687 394.165 218.043C395.183 216.517 397.424 214.889 399.155 214.381C400.784 213.872 402.413 213.364 402.719 213.364V213.364ZM418.094 243.573C417.28 245.098 416.465 249.472 416.159 253.439C415.888 258.185 416.295 262.661 417.381 266.865C418.501 271.137 419.927 274.087 421.76 275.816C423.389 277.138 425.833 278.359 427.462 278.359C429.091 278.359 431.433 277.24 433.164 275.511C434.895 273.985 436.728 271.544 437.237 269.916C437.848 268.391 438.663 264.322 438.968 260.762C439.376 256.185 439.07 253.032 437.848 249.37C436.932 246.522 435.099 243.267 433.877 241.945C432.248 240.216 430.72 239.708 427.157 239.809C424.611 239.911 421.862 240.114 421.047 240.42C420.131 240.623 418.807 242.047 418.094 243.573V243.573Z" fill="#6D7AC4"/>
<path d="M506.071 212.855C507.7 213.16 509.228 213.771 509.431 214.279C509.533 214.89 510.348 215.296 511.162 215.296C511.977 215.296 513.402 216.415 514.217 217.839C515.541 219.975 515.744 227.807 515.846 269.408C515.948 304.296 515.643 318.637 514.828 318.739C514.217 318.942 513.708 319.756 513.708 320.57C513.708 321.384 511.773 323.011 509.329 324.232C506.58 325.554 503.933 326.062 501.998 325.757C500.369 325.452 497.721 324.13 496.296 322.909C494.768 321.587 493.343 319.654 492.936 318.536C492.63 317.417 492.121 301.855 491.917 283.953C491.714 266.051 491.917 243.98 492.426 234.825C493.241 219.772 493.547 218.144 495.583 215.907C496.907 214.584 499.045 213.262 500.471 212.957C501.896 212.652 504.442 212.652 506.071 212.855V212.855Z" fill="#6D7AC4"/>
<path opacity="0.9" d="M332.866 193.937C333.477 193.835 334.597 194.547 335.31 195.462C336.125 196.48 336.227 197.598 335.514 199.022C335.005 200.141 333.987 201.057 333.477 201.057C332.968 201.057 332.663 201.362 332.866 201.87C333.07 202.277 332.663 203.396 331.848 204.413C331.034 205.328 329.608 206.04 328.692 205.837C327.368 205.634 326.961 204.718 327.164 202.786C327.266 201.26 328.386 198.615 329.608 196.988C330.83 195.361 332.256 193.937 332.866 193.937Z" fill="#6D7AC3"/>
<path fill-rule="evenodd" clip-rule="evenodd" d="M728.967 106.972C732.734 107.277 737.011 108.396 740.167 110.023C743.018 111.447 746.786 114.498 748.619 116.94C751.572 120.601 751.877 121.72 751.368 124.771C750.961 126.704 750.655 130.671 750.757 133.417C750.859 136.265 750.35 141.656 749.739 145.623C749.128 149.59 748.008 153.76 747.193 155.082C746.379 156.303 745.768 157.727 745.768 158.337C745.768 158.947 744.444 161.388 742.713 163.931C740.982 166.474 739.658 169.22 739.658 170.034C739.658 170.848 736.4 175.12 732.327 179.493C728.356 183.765 723.875 188.444 722.348 189.868C720.821 191.292 718.275 193.53 716.646 194.954C715.017 196.378 712.165 198.31 710.333 199.226C708.602 200.243 706.565 200.853 706.056 200.548C705.547 200.243 703.307 200.751 701.168 201.565C698.012 202.887 696.484 202.989 691.291 201.87C686.505 200.853 684.265 199.734 680.803 196.479C677.545 193.428 676.119 191.19 675.305 187.325C674.592 184.477 674.083 178.578 674.083 174.102C674.083 169.627 674.592 163.524 675.305 160.575C676.017 157.727 676.934 154.472 677.443 153.455C677.952 152.539 679.785 148.674 681.516 144.809C683.247 141.046 685.589 137.384 686.709 136.672C687.829 136.062 688.542 135.146 688.236 134.638C687.931 134.231 688.44 132.909 689.255 131.586C690.171 130.366 694.142 125.992 698.215 121.924C702.187 117.855 707.176 113.786 709.111 112.871C711.045 111.956 712.878 110.938 713.184 110.633C713.489 110.328 715.729 109.209 718.275 108.294C721.533 106.972 724.69 106.667 728.967 106.972ZM716.238 138.91C714.304 140.944 711.758 143.894 710.638 145.521C709.518 147.148 707.787 149.691 706.87 151.115C705.954 152.539 704.223 155.794 703.001 158.337C701.779 160.88 700.659 164.033 700.354 165.457C700.048 166.881 699.132 169.729 698.317 171.865C697.503 173.899 696.892 178.273 696.892 181.527C696.79 185.799 697.299 187.834 698.623 189.054C699.641 190.071 701.983 190.885 703.816 190.885C705.547 190.885 709.212 189.766 711.962 188.444C714.609 187.02 719.089 183.46 721.941 180.51C724.792 177.561 728.763 172.678 730.799 169.83C732.836 166.881 735.585 162.507 736.705 160.168C737.927 157.727 739.556 153.76 740.269 151.217C741.084 148.674 741.695 144.606 741.695 142.063C741.695 138.299 741.186 136.875 738.436 134.027C736.603 132.197 734.058 130.264 732.836 129.755C731.512 129.247 730.188 128.84 729.781 128.84C729.272 128.84 726.93 130.264 724.384 131.993C721.839 133.722 718.173 136.875 716.238 138.91Z" fill="#70B3B2"/>
<path d="M24.8453 100.462C29.0202 100.462 34.1114 100.869 36.0461 101.378C37.9808 101.988 40.4246 103.31 41.4428 104.429C42.3592 105.548 43.1739 106.87 43.1739 107.48C43.1739 107.989 42.5629 109.209 41.7483 110.023C40.7301 111.04 38.2863 111.549 34.6206 111.549C31.464 111.549 27.7983 112.159 26.3727 112.769C24.6417 113.685 23.5216 115.211 23.1143 117.652C22.707 119.584 22.4015 124.67 22.4015 128.84C22.2997 134.129 23.0125 138.808 24.7435 144.097C26.0672 148.267 27.2891 152.132 27.4928 152.743C27.6964 153.251 28.511 154.574 29.122 155.692C29.8348 156.71 31.9731 159.252 33.7041 161.287C35.537 163.321 37.0643 165.152 37.0643 165.457C37.0643 165.762 39.4063 167.796 42.3593 170.034C45.3122 172.272 49.2834 174.916 51.3199 175.933C53.2545 176.849 56.6148 177.663 58.6513 177.663C60.7896 177.663 62.5206 177.154 62.5206 176.645C62.5206 176.035 63.4371 174.408 64.5571 172.78C66.0845 170.746 66.6955 168.508 66.5936 164.44C66.5936 161.388 65.7791 156.913 64.7608 154.472C63.2334 150.607 63.2334 149.997 64.5571 148.573C65.4736 147.555 67.001 147.25 68.3247 147.555C69.8521 147.962 71.4813 149.895 72.9068 152.946C74.7397 156.811 75.2488 159.558 75.2488 165.966C75.147 170.441 74.8415 176.137 74.4342 178.68C74.0269 181.426 72.7032 184.376 71.1758 186.003C69.7502 187.63 68.6301 189.156 68.6301 189.563C68.5283 190.072 66.5937 191.699 64.2517 193.326C60.4841 195.971 58.9568 196.378 50.8107 196.785C43.7848 197.09 40.5264 196.785 37.0643 195.462C34.5187 194.445 31.5658 192.818 30.4457 191.801C29.3256 190.784 27.7983 189.868 27.0855 189.868C26.4745 189.868 22.707 186.613 18.7358 182.748C14.7646 178.781 11.6081 174.916 11.6081 174.103C11.6081 173.289 11.3026 172.577 10.7935 172.577C10.3862 172.679 8.75696 170.034 7.12776 166.779C5.49856 163.524 3.76751 159.964 3.25839 158.846C2.85109 157.727 1.93467 155.387 1.32371 153.76C0.610939 152.031 0.101825 143.995 0 134.638C0 125.687 0.203657 118.262 0.610957 118.059C1.12008 117.855 1.42555 116.94 1.42555 116.126C1.42555 115.312 2.64746 112.769 4.17484 110.532C5.80404 108.294 7.22958 106.463 7.53506 106.463C7.84053 106.463 9.26608 105.344 10.5898 104.022C12.0154 102.7 14.0519 101.378 15.1719 101.072C16.292 100.767 20.6705 100.564 24.8453 100.462V100.462Z" fill="#70B3B2"/>
<path fill-rule="evenodd" clip-rule="evenodd" d="M107.833 51.5379C109.258 51.5379 112.822 52.1482 115.775 52.9619C118.626 53.6739 122.903 55.1996 125.143 56.4201C127.383 57.539 132.78 62.1161 137.159 66.6932C141.435 71.2703 144.999 75.3388 144.999 75.9491C144.999 76.5594 146.119 77.8817 147.545 79.0005C148.97 80.1194 150.09 81.7468 150.09 82.5605C150.09 83.3742 150.701 84.2896 151.414 84.3913C152.025 84.5947 153.654 86.9341 154.978 89.477C156.2 92.1215 157.524 94.2575 158.033 94.2575C158.44 94.1558 159.458 95.5798 160.273 97.3089C161.088 99.0381 162.106 100.462 162.615 100.36C163.022 100.36 163.328 101.072 163.328 101.886C163.328 102.7 163.633 103.513 164.142 103.717C164.55 103.819 165.873 105.446 167.197 107.277C168.419 109.006 169.437 110.939 169.437 111.549C169.437 112.159 169.844 112.566 170.455 112.566C171.066 112.566 171.779 113.583 172.186 114.905C172.594 116.126 173.612 117.855 174.528 118.669C175.75 119.788 176.259 121.822 176.158 125.992C176.056 130.671 175.547 132.197 173.51 134.333C171.372 136.57 170.15 136.977 165.364 136.977C160.171 136.977 159.458 136.672 154.876 132.4C152.229 129.857 150.09 127.111 150.09 126.297C150.09 125.484 149.683 124.772 149.072 124.772C148.461 124.772 147.647 123.653 147.036 122.229C146.425 120.805 145.61 119.686 144.999 119.686C144.388 119.686 143.981 119.076 143.981 118.465C143.981 117.753 142.963 116.126 141.639 114.804C140.417 113.583 138.686 112.566 137.871 112.566C137.057 112.566 135.733 113.481 135.122 114.6C134.409 115.719 133.086 116.634 132.271 116.634C131.456 116.634 129.522 117.448 127.994 118.567C126.365 119.584 123.718 120.703 122.088 121.212C120.459 121.618 118.015 122.839 116.794 123.856C115.47 124.873 113.841 125.585 113.23 125.28C112.517 124.975 110.888 125.687 109.666 126.806C108.342 127.925 107.324 129.145 107.324 129.654C107.324 130.061 108.546 133.621 110.175 137.587C111.702 141.554 113.433 145.419 114.044 146.233C114.655 147.047 116.59 150.607 118.321 154.268C120.867 159.558 121.274 161.185 120.256 162.202C119.543 162.914 118.015 163.524 116.794 163.423C115.063 163.423 114.248 162.609 113.739 160.676C113.433 159.049 112.822 157.625 112.415 157.32C112.008 157.015 110.379 154.268 108.851 151.217C107.324 148.166 105.491 144.911 104.778 144.097C104.065 143.283 102.945 140.842 102.334 138.808C101.622 136.367 100.603 134.943 99.4833 134.841C98.465 134.841 96.3267 134.638 94.5957 134.638C92.1519 134.434 91.4391 133.824 90.7263 130.874C90.1154 128.637 90.1154 126.602 90.7263 125.28C91.3373 124.161 92.3555 122.127 92.9665 120.703C93.8829 118.669 93.8829 116.94 92.5592 112.057C91.6427 108.701 90.6245 105.548 90.2172 104.937C89.9117 104.327 89.0971 101.174 88.588 97.8175C88.0789 94.461 87.6716 87.1376 87.6716 81.5434C87.7734 75.9491 87.977 70.2532 88.1807 68.8292C88.4862 67.4052 88.9953 65.1675 89.4026 63.7435C89.9117 62.3195 91.5409 59.675 93.1701 57.8441C95.2066 55.6064 97.4468 54.3859 99.9924 53.8773C102.131 53.5722 104.269 52.8602 104.676 52.4533C105.084 51.9448 106.509 51.5379 107.833 51.5379V51.5379ZM95.1048 84.0862C95.1048 88.053 96.1231 95.1729 97.345 100.157C98.5669 105.039 99.8906 109.108 100.4 109.311C100.807 109.413 101.214 110.227 101.214 111.04C101.214 112.363 101.927 112.261 105.287 110.532C107.527 109.413 109.36 108.192 109.36 107.785C109.36 107.277 109.971 106.972 110.684 106.87C111.295 106.87 114.452 105.649 117.506 104.225C120.561 102.7 124.43 101.174 126.06 100.665C127.689 100.259 129.216 99.2415 129.42 98.6312C129.522 97.9192 128.503 95.5798 126.976 93.5455C125.449 91.4095 122.801 88.1547 121.07 86.2222C119.441 84.3913 116.895 81.8485 115.572 80.6279C114.146 79.5091 112.11 77.5765 110.99 76.4577C109.869 75.3388 107.731 73.8131 106.306 73.1011C104.88 72.3891 102.64 71.8806 101.214 71.8806C99.6869 71.8806 97.9559 72.9994 96.8358 74.4234C95.6139 76.2543 95.1048 78.8988 95.1048 84.0862Z" fill="#BA80B6"/>
<path fill-rule="evenodd" clip-rule="evenodd" d="M621.032 49.5035C622.152 49.5035 624.596 50.0121 626.531 50.7241C628.363 51.4361 630.807 53.3686 631.825 55.0978C632.844 56.8269 633.76 59.98 633.76 66.2863H640.073C643.637 66.388 648.627 66.8965 651.274 67.5068C653.921 68.1171 656.671 69.3377 657.384 70.1514C658.096 70.9651 659.624 71.8805 660.744 72.1856C661.864 72.5925 664.104 74.8302 665.631 77.1696C667.159 79.6107 668.686 82.6621 668.992 84.0861C669.297 85.5101 669.806 87.3409 670.213 88.1546C670.621 88.9683 670.723 94.2574 670.315 99.8517C670.01 105.446 669.093 111.65 668.381 113.583C667.668 115.516 666.446 118.364 665.733 119.991C664.919 121.517 664.409 123.042 664.511 123.347C664.715 123.653 663.595 125.687 661.966 127.925C660.438 130.061 659.216 132.298 659.216 132.909C659.216 133.519 656.263 136.875 652.598 140.537C648.83 144.3 643.23 148.572 639.564 150.505C633.556 153.556 632.742 153.76 622.559 153.658C613.293 153.556 611.155 153.15 606.267 150.912C603.213 149.386 600.056 148.166 599.343 148.166C598.732 148.166 596.899 149.284 595.27 150.607C593.234 152.438 591.503 152.946 588.448 152.743C586.208 152.641 583.255 152.234 581.829 151.827C580.302 151.42 578.571 149.59 577.349 147.352C575.822 144.3 575.618 142.368 576.229 137.486C576.534 134.129 577.756 130.162 578.876 128.535C579.895 127.009 580.607 125.382 580.302 124.771C579.996 124.161 580.505 122.229 581.422 120.398C582.338 118.669 583.764 114.804 584.579 112.057C585.393 109.209 586.92 105.446 588.041 103.615C589.059 101.886 589.772 100.36 589.466 100.36C589.161 100.36 589.67 98.6311 590.586 96.4951C591.401 94.4609 593.946 89.0701 596.085 84.5947C598.325 80.1193 600.769 74.8302 601.583 72.8976C602.5 70.9651 603.62 68.6257 604.129 67.812C604.638 66.9982 605.758 64.6588 606.573 62.7263C607.489 60.7937 609.628 57.4372 611.359 55.1995C613.09 53.0635 615.533 50.9275 616.755 50.419C617.977 50.0121 619.912 49.6053 621.032 49.5035ZM622.458 87.4426C622.559 87.8495 621.439 90.5957 620.014 93.5454C618.588 96.3934 617.468 99.5465 617.468 100.36C617.468 101.174 616.552 103.005 615.432 104.429C614.311 105.853 613.395 107.582 613.395 108.294C613.395 108.904 612.784 111.04 611.969 112.871C611.155 114.6 609.933 117.55 609.22 119.177C608.507 120.805 607.795 123.347 607.591 124.771C607.489 126.195 606.878 127.721 606.267 128.331C605.656 128.942 605.249 130.162 605.249 131.179C605.249 132.095 606.165 133.315 607.286 133.926C608.406 134.536 611.969 134.943 615.228 134.943C620.014 134.841 621.847 134.333 625.309 131.891C627.752 130.162 629.993 128.84 630.4 128.84C630.909 128.84 632.64 126.806 634.473 124.466C636.204 122.127 639.055 117.55 640.786 114.397C642.517 111.142 643.943 107.684 643.943 106.768C643.943 105.751 644.35 104.53 644.859 103.92C645.47 103.31 646.183 99.5465 646.488 95.5797C646.794 91.206 646.488 87.0358 645.877 85.4084C645.266 83.7809 644.044 82.0518 643.128 81.3398C642.11 80.6278 638.342 80.0176 634.575 80.0176C628.058 80.0176 627.651 80.1193 625.105 83.3741C623.578 85.3066 622.458 87.1375 622.458 87.4426Z" fill="#6D7AC4"/>
<path d="M503.729 14.0056C506.275 13.9039 507.599 14.4124 507.904 15.4296C508.108 16.2433 509.024 16.9553 509.94 16.9553C510.857 16.9553 511.57 17.6672 511.57 18.481C511.57 19.2947 512.282 20.2101 513.097 20.5152C514.115 20.8204 514.624 22.4478 514.624 25.6009C514.624 28.1437 515.134 30.178 515.643 30.178C516.254 30.178 516.661 31.0934 516.661 32.2123C516.661 33.3311 517.068 35.0602 517.577 36.0774C518.086 36.9928 519.308 41.2648 520.225 45.435C521.141 49.6053 522.567 54.4875 523.28 56.1149C523.992 57.844 525.622 61.8109 526.742 65.0657C527.964 68.2188 528.88 71.6771 528.88 72.6942C528.982 73.6096 529.796 76.2542 530.916 78.4919C532.036 80.7296 532.851 83.4758 532.851 84.5947C532.953 85.7135 533.258 87.0358 533.768 87.6461C534.277 88.2563 535.397 90.6975 536.313 93.2403C537.331 95.7831 538.451 98.5294 538.961 99.3431C539.775 100.665 540.182 100.564 541.71 98.8345C542.83 97.614 543.543 95.1729 543.645 92.4266C543.645 89.9855 544.255 87.7478 544.968 87.3409C545.681 86.9341 546.496 84.5947 546.699 82.0518C547.005 79.509 547.921 75.4405 548.838 72.8976C549.754 70.3548 550.161 67.7102 549.856 67.1C549.55 66.388 549.958 64.4554 550.772 62.7263C551.587 61.0989 552.503 57.0303 552.707 53.8772C552.911 50.6224 553.929 45.2316 554.845 41.875C555.762 38.5185 556.475 34.8568 556.271 33.738C556.169 32.6191 556.271 30.6866 556.678 29.466C557.187 27.7369 558.206 27.1266 560.242 27.1266C562.38 27.1266 563.093 27.6352 563.297 29.3643C563.399 30.6866 562.482 38.1116 561.362 45.9436C560.14 53.7755 558.715 60.5903 558.307 61.2006C557.798 61.8109 557.391 63.2349 557.391 64.5571C557.391 65.7777 556.678 68.1171 555.864 69.8462C555.049 71.5753 554.438 73.5079 554.54 74.2199C554.642 74.8302 554.336 77.7799 553.929 80.5261C553.522 83.3741 552.809 86.5272 552.3 87.6461C551.791 88.7649 551.18 91.1043 550.772 92.7317C550.467 94.3591 549.754 97.614 549.347 99.8517C548.838 102.089 547.819 105.954 546.903 108.497C545.987 111.04 545.172 114.193 545.172 115.617C545.172 117.041 545.885 119.991 546.801 122.229C547.718 124.568 548.125 127.619 547.819 129.349C547.514 130.976 545.987 133.621 544.459 135.045C542.015 137.282 540.793 137.587 535.499 137.384C530.509 137.282 528.982 136.774 527.047 134.841C525.723 133.519 524.196 130.569 523.483 128.331C522.872 126.094 522.363 123.246 522.363 122.025C522.261 120.805 521.549 119.177 520.632 118.465C519.818 117.753 517.577 112.566 515.643 106.972C513.81 101.377 511.672 95.5797 510.959 94.054C510.144 92.4266 509.533 90.1889 509.533 88.9683C509.635 87.6461 508.922 85.9169 508.006 85.1032C507.089 84.2895 506.377 82.6621 506.377 81.5433C506.478 80.4244 505.867 78.3901 505.155 76.9662C504.34 75.5422 503.424 72.7959 502.915 70.8634C502.507 68.9308 501.794 66.8965 501.387 66.2862C500.98 65.676 500.369 64.0486 499.962 62.5229C499.656 60.8954 498.943 59.6749 498.332 59.6749C497.823 59.6749 497.009 60.4886 496.601 61.5057C496.296 62.4211 495.481 63.54 494.87 63.9468C494.259 64.3537 493.648 66.6931 493.648 69.0325C493.547 71.4736 492.732 77.0679 491.714 81.5433C490.696 86.0186 489.474 91.7146 488.964 94.2574C488.455 96.8003 487.641 102.7 487.03 107.48C486.521 112.261 485.808 117.448 485.401 119.075C484.891 120.703 483.771 122.534 482.855 123.144C481.429 123.958 480.717 123.958 479.393 122.737C478.069 121.517 477.866 119.686 478.375 112.362C478.68 107.378 479.495 103.208 480.004 102.903C480.615 102.598 481.022 99.9534 481.022 97.1054C481.022 94.054 482.142 88.6632 483.568 84.5947C484.993 80.6278 485.91 76.661 485.604 75.7456C485.299 74.7284 485.808 72.3891 486.724 70.6599C487.641 68.8291 488.557 64.7605 488.761 61.7091C489.066 58.6577 489.779 55.8098 490.492 55.4029C491.103 54.9961 491.816 52.6567 492.019 50.3172C492.223 47.8761 492.427 44.3162 492.427 42.3836C492.427 40.451 492.325 34.45 492.121 29.1609C491.816 21.0238 492.019 19.193 493.547 17.769C494.463 16.7518 496.296 15.5313 497.62 15.0227C498.842 14.4124 501.591 14.0056 503.729 14.0056V14.0056Z" fill="#E89156"/>
<path d="M246.111 6.88574C246.519 6.88574 247.333 7.69944 247.843 8.81829C248.453 9.93714 248.861 12.3783 248.861 14.2091C248.861 15.9382 249.574 18.8879 250.49 20.5153C251.406 22.2445 252.221 26.0079 252.323 28.9575C252.425 32.1107 252.934 34.6535 253.748 35.0604C254.461 35.4672 255.479 39.0272 255.989 42.8923C256.498 46.7574 257.618 54.5893 258.534 60.1836C259.451 65.7778 260.469 75.5423 260.876 81.8485C261.283 88.1547 262.098 93.6473 262.709 94.0541C263.32 94.461 265.255 96.9021 266.986 99.6484C268.818 102.293 270.448 105.955 270.753 107.785C271.059 109.616 270.753 112.159 270.04 113.583C269.226 115.007 267.291 116.736 265.662 117.55C263.931 118.364 260.367 118.974 257.516 118.974C252.628 118.872 252.221 118.669 247.028 112.973C244.075 109.616 241.733 106.361 241.733 105.751C241.733 105.039 240.918 104.124 239.9 103.717C238.882 103.208 235.827 100.36 233.078 97.309C230.43 94.2576 225.136 88.5616 221.266 84.5948C217.499 80.628 214.342 77.068 214.24 76.4577C214.24 75.8474 212.815 74.3217 211.084 72.8977C209.353 71.4737 206.196 68.2189 204.159 65.4727C202.123 62.8281 199.883 60.6921 199.272 60.6921C198.254 60.6921 198.05 62.3195 198.559 67.1001C198.865 70.5583 199.577 75.2371 200.188 77.4748C200.697 79.7125 200.901 83.2725 200.596 85.4085C200.188 88.053 200.392 89.5787 201.512 90.6976C202.327 91.5113 203.447 94.6644 204.058 97.6141C204.567 100.462 206.094 106.768 207.316 111.549C208.64 116.736 209.251 121.313 208.843 123.042C208.436 124.568 207.52 125.789 206.909 125.789C206.196 125.789 204.77 125.28 203.752 124.568C202.734 123.856 201.818 121.822 201.614 120.194C201.512 118.567 201.207 116.736 200.901 116.126C200.494 115.516 199.17 110.939 197.948 105.955C196.726 100.971 195.606 94.7661 195.403 92.2233C195.301 89.6804 194.792 86.0188 194.384 84.0862C193.977 82.1537 193.061 79.916 192.45 79.204C191.839 78.3903 191.635 76.6611 192.042 75.1354C192.348 73.6097 192.042 69.4395 191.126 65.7778C190.311 62.1161 189.497 56.3184 189.395 52.7585C189.293 47.7745 188.886 46.1471 187.562 45.3334C186.544 44.8248 185.729 43.706 185.729 42.8923C185.729 42.0786 185.322 41.2649 184.915 41.1632C184.507 40.9597 183.082 39.3323 181.86 37.6032C180.638 35.7723 179.823 33.5346 180.129 32.7209C180.434 31.9072 180.231 30.4832 179.62 29.6695C178.907 28.6524 179.009 26.6181 179.925 23.465C180.536 20.9222 182.063 18.2776 183.184 17.5656C184.304 16.8537 186.34 16.0399 187.766 15.7348C189.191 15.328 191.839 15.5314 193.671 16.0399C195.403 16.5485 198.152 18.1759 199.577 19.8033C201.003 21.329 204.363 25.8044 207.011 29.6695C209.76 33.5346 212.713 37.5015 213.629 38.3152C214.546 39.1289 215.36 40.2477 215.36 40.858C215.36 41.4683 216.379 42.7906 217.6 43.9094C218.822 45.0283 220.757 47.266 221.775 48.9951C222.895 50.7242 226.357 54.7927 229.412 58.0476C232.569 61.4041 237.558 66.4898 240.511 69.5412C243.362 72.4909 245.806 75.3389 245.806 75.9491C245.806 76.5594 247.028 78.0851 248.657 79.5091C250.184 80.8314 252.017 82.0519 252.73 82.0519C253.545 82.0519 253.952 80.3228 253.85 76.2543C253.748 72.9994 253.137 68.1172 252.323 65.2692C251.61 62.523 250.286 55.403 249.268 49.5037C248.352 43.6043 247.537 37.7049 247.639 36.2809C247.639 34.8569 246.824 31.1952 245.704 28.1438C244.584 25.0924 243.973 21.8376 244.279 21.0239C244.686 20.2102 244.177 17.6674 243.26 15.4297C242.446 13.192 241.631 10.5474 241.428 9.632C241.326 8.71658 242.14 7.80115 243.26 7.49601C244.38 7.19087 245.602 6.98746 246.111 6.88574V6.88574Z" fill="#E89156"/>
<path fill-rule="evenodd" clip-rule="evenodd" d="M422.269 6.37714C425.222 6.58057 428.582 7.80113 431.128 9.63197C433.47 11.1577 435.303 12.6834 435.201 13.1919C435.201 13.5988 436.321 14.9211 437.645 16.2433C439.274 17.5656 440.496 20.2102 441.005 23.1599C441.412 25.7027 442.329 28.4489 443.041 29.2627C443.652 30.0764 444.467 33.4329 444.874 36.7894C445.18 40.146 445.791 56.4201 446.198 72.8977C446.707 96.19 446.605 103.412 445.689 105.243C444.976 106.463 444.365 107.887 444.365 108.497C444.365 109.108 443.754 110.125 443.143 110.837C442.43 111.65 440.699 112.464 439.274 112.769C437.848 113.074 436.321 113.481 435.71 113.583C435.201 113.786 432.655 113.481 430.313 112.973C426.138 112.159 425.731 111.752 424.713 107.684C424 105.344 423.185 103.412 422.778 103.412C422.269 103.412 421.963 97.2072 421.963 75.9491H417.687C415.243 75.9491 410.355 75.4405 406.69 74.932C403.024 74.3217 398.035 73.6097 395.489 73.2028C392.943 72.8977 389.583 72.5926 387.852 72.4908C385.001 72.3891 384.797 72.5925 382.964 80.0176C381.946 84.1879 380.928 91.5112 380.622 96.2918C380.317 101.072 379.502 105.548 378.891 106.26C378.179 106.972 376.957 107.582 376.142 107.582C375.328 107.582 373.902 106.768 373.087 105.853C371.865 104.531 371.764 102.903 372.375 97.9192C372.884 94.5626 373.698 91.5112 374.106 91.2061C374.615 90.901 375.226 86.2221 376.142 70.8634L373.087 69.8463C370.949 69.1343 369.829 68.0154 369.422 66.0829C369.014 64.0486 369.422 62.7263 370.745 61.4041C371.764 60.3869 373.495 59.2681 374.615 58.963C375.735 58.6578 377.873 57.4373 379.401 56.2167C381.03 54.9961 382.15 53.1653 382.15 52.0464C382.048 50.9276 382.557 48.6899 383.372 46.9608C384.084 45.2316 384.695 43.5025 384.797 42.8922C384.797 42.282 385.816 39.7391 387.139 37.0946C388.361 34.3483 389.379 31.8055 389.379 31.1952C389.379 30.5849 389.889 30.1781 390.398 30.1781C391.009 30.1781 391.212 29.4661 390.907 28.6524C390.601 27.8387 391.314 26.313 392.434 25.3975C393.554 24.3804 394.165 23.2616 393.962 22.8547C393.656 22.3461 393.962 21.8376 394.471 21.5324C395.082 21.2273 396.609 19.2947 397.831 17.2605C399.155 15.1245 402.209 12.0731 404.653 10.344C407.097 8.61483 410.966 6.98742 413.207 6.58057C415.549 6.27543 419.52 6.072 422.269 6.37714V6.37714ZM399.867 28.4489C398.035 31.0935 396.507 33.6363 396.507 34.2466C396.507 34.8569 395.387 37.7049 394.063 40.6545C392.638 43.5025 391.212 47.8762 390.703 50.2156L389.889 54.4876C396.202 55.5047 401.497 56.4201 405.671 57.2338C409.846 58.0475 414.734 58.5561 416.465 58.4544C419.52 58.1493 419.723 57.8441 420.232 53.0636C420.538 50.3173 420.436 45.0282 419.927 41.3665C419.52 37.7049 418.298 32.2123 417.381 29.1609C416.363 26.1095 414.632 22.753 413.41 21.7359C412.29 20.7187 410.865 19.905 410.254 20.0067C409.744 20.0067 407.912 20.8204 406.181 21.8376C404.551 22.8547 401.598 25.8044 399.867 28.4489V28.4489Z" fill="#BA80B6"/>
<path d="M330.321 0.070888C338.976 0.376028 347.529 0.884598 349.158 1.39317C351.093 2.00345 352.519 3.32573 353.13 5.05485C353.639 6.68227 353.537 9.2251 352.926 11.5645C352.01 14.7176 351.195 15.5313 348.446 16.2433C346.613 16.6502 342.031 16.9553 331.339 16.9553L331.848 29.8729C332.154 37.0946 333.07 51.0293 333.885 60.8955C334.699 70.8634 335.412 83.9844 335.412 90.189C335.412 97.1055 334.903 102.395 334.19 103.92C333.477 105.344 332.255 106.463 331.645 106.463C330.932 106.463 330.219 106.972 330.117 107.48C329.913 108.091 328.182 108.599 326.248 108.701C324.313 108.701 321.157 108.497 319.425 108.091C316.778 107.582 315.76 106.768 314.843 103.92C314.131 101.988 313.214 100.36 312.807 100.36C312.298 100.36 311.789 96.3935 311.483 91.4095C311.178 86.5273 310.261 71.7788 309.447 58.6578C308.632 45.5368 307.817 31.0935 307.41 18.481L297.737 18.7862C290.914 18.9896 287.554 18.6844 286.332 17.769C285.416 17.057 284.499 14.7176 284.296 12.3782C283.99 8.81824 284.296 8.20797 287.554 6.07199C289.794 4.648 293.46 3.52914 297.228 3.12229C300.588 2.81715 305.883 1.90173 308.938 1.08802C312.909 0.0708879 319.018 -0.132539 330.321 0.070888V0.070888Z" fill="#6D7AC4"/>
</svg>
