<svg width="2130" height="37" viewBox="0 0 2130 37" fill="none" xmlns="http://www.w3.org/2000/svg">
<path d="M0 37V30.1617C50.7354 -1.09905 232.229 26.0587 334.292 20.8812C435.319 15.3128 568.74 -12.8218 657.49 8.66994C808.365 45.2059 878.625 0.36631 970.333 0.36631C1076.83 -5.00661 1087.19 51.165 1249.9 9.64682C1345.3 -17.218 1452.54 30.1616 1554.6 9.64678C1655.34 -10.8681 1831.95 30.1616 1932.53 9.64678C2034.45 -10.8681 2122.14 29.1848 2130 34.0693V37H2079.26C2028.53 37 1927.35 37 1825.29 37C1724.26 37 1622.65 37 1522.06 37C1420 37 1317.94 37 1217.35 37C1115.74 37 1014.71 37 912.646 37C811.471 37 710 37 607.938 37C507.206 37 405.292 37 304.708 37C202.794 37 102.063 37 50.2917 37H0Z" fill="white"/>
</svg>
